<?xml version="1.0" encoding="utf-8"?>
<!-- Generator: Adobe Illustrator 19.2.1, SVG Export Plug-In . SVG Version: 6.00 Build 0)  -->
<svg version="1.1" id="Layer_1" xmlns="http://www.w3.org/2000/svg" xmlns:xlink="http://www.w3.org/1999/xlink" x="0px" y="0px"
	 viewBox="0 0 846.6 194.1" style="enable-background:new 0 0 846.6 194.1;" xml:space="preserve">
<style type="text/css">
	.st0{fill:#788181;}
	.st1{fill:#5ACAEA;}
	.st2{fill:#0FA0C8;}
	.st3{fill:#8BD3EA;}
	.st4{fill:#353838;}
	.st5{font-family:'UniversLTStd-Cn';}
	.st6{font-size:19.2034px;}
	.st7{clip-path:url(#SVGID_2_);fill:none;stroke:#353838;stroke-miterlimit:10;}
	.st8{font-size:17.2529px;}
</style>
<g>
	<polygon class="st0" points="492.2,80.6 517.8,80.6 516.9,87.1 500.3,87.1 500.3,95.1 515.7,95.1 515.7,101.6 500.3,101.6 
		500.3,110.4 517,110.4 517.9,116.9 492.2,116.9 492.2,80.6 	"/>
	<path class="st0" d="M544.2,106.2v-0.5c0-2.3-1.8-4.2-4.2-4.2h-8.5v8.8h8.5C542.4,110.3,544.2,108.5,544.2,106.2L544.2,106.2z
		 M543.5,91c0-3.3-2.3-4.2-4-4.2h-7.9v8.5h7.9C541.5,95.3,543.5,93.6,543.5,91L543.5,91z M541.8,80.6c5.2,0,9.5,4,9.5,8.9
		c0,5.3-3.1,7.6-6.2,8.5v0.3c3.1,0.6,7,2.9,7,9c0,5.3-4.5,9.7-10,9.7h-18.3V80.6H541.8L541.8,80.6z"/>
	<path class="st0" d="M577.1,90.9c0-2.6-2.2-4.3-6-4.3c-3.9,0-6.1,1.4-6.1,3.4c0,6.9,20.6,2.3,20.6,15.5c0,8.6-6.2,11.9-15,11.9
		c-7.8,0-14.6-3.2-14.6-11.2c0-0.4,0.1-0.9,0.1-1.2h7.7c0,0.1-0.1,0.6-0.1,0.8c0,3,2.3,5,6.7,5c5.3,0,6.9-2.1,6.9-4.1
		c0-7-20.4-2.1-20.4-16c0-7.2,6.5-10.7,14.2-10.7c7.6,0,13.8,3.2,13.8,10.6v0.6h-7.7V90.9L577.1,90.9z"/>
	<path class="st0" d="M600.4,103.6h10c-1.6-4.8-3.2-9.5-4.9-14.2h-0.3L600.4,103.6L600.4,103.6z M598.2,109.7l-2.5,7.1h-7.9
		l13.2-36.2h9.7l13.2,36.2h-8.6l-2.6-7.1H598.2L598.2,109.7z"/>
	<polygon class="st1" points="484.2,98.8 466.1,98.8 466.1,80.6 484.2,80.6 484.2,98.8 	"/>
	<polygon class="st2" points="484.2,116.9 466.1,116.9 466.1,98.8 484.2,98.8 484.2,116.9 	"/>
	<polygon class="st3" points="466.1,116.9 447.9,116.9 447.9,98.8 466.1,98.8 466.1,116.9 	"/>
	<text transform="matrix(1 0 0 1 645.6774 92.4513)" class="st4 st5 st6">Ec</text>
	<text transform="matrix(1 0 0 1 664.2008 92.4513)" class="st4 st5 st6">on</text>
	<text transform="matrix(1 0 0 1 683.2321 92.4513)" class="st4 st5 st6">omi</text>
	<text transform="matrix(1 0 0 1 711.3883 92.4513)" class="st4 st5 st6">cs </text>
	<text transform="matrix(1 0 0 1 733.3883 92.4513)" class="st4 st5 st6">&amp; </text>
	<text transform="matrix(1 0 0 1 750.5992 92.4513)" class="st4 st5 st6">Bu</text>
	<text transform="matrix(1 0 0 1 771.6617 92.4513)" class="st4 st5 st6">si</text>
	<text transform="matrix(1 0 0 1 785.0289 92.4513)" class="st4 st5 st6">ness</text>
	<text transform="matrix(1 0 0 1 820.7633 92.4513)" class="st4 st5 st6"> </text>
	<text transform="matrix(1 0 0 1 645.6774 115.4981)" class="st4 st5 st6">St</text>
	<text transform="matrix(1 0 0 1 662.9039 115.4981)" class="st4 st5 st6">ud</text>
	<text transform="matrix(1 0 0 1 681.6227 115.4981)" class="st4 st5 st6">en</text>
	<text transform="matrix(1 0 0 1 701.0992 115.4981)" class="st4 st5 st6">t </text>
	<text transform="matrix(1 0 0 1 711.7477 115.4981)" class="st4 st5 st6">A</text>
	<text transform="matrix(1 0 0 1 723.9899 115.4981)" class="st4 st5 st6">sso</text>
	<text transform="matrix(1 0 0 1 749.7633 115.4981)" class="st4 st5 st6">ci</text>
	<text transform="matrix(1 0 0 1 763.8727 115.4981)" class="st4 st5 st6">at</text>
	<text transform="matrix(1 0 0 1 780.3414 115.4981)" class="st4 st5 st6">io</text>
	<text transform="matrix(1 0 0 1 794.3727 115.4981)" class="st4 st5 st6">n</text>
	<g>
		<defs>
			<rect id="SVGID_1_" x="447.9" y="76.5" width="377.1" height="43.8"/>
		</defs>
		<clipPath id="SVGID_2_">
			<use xlink:href="#SVGID_1_"  style="overflow:visible;"/>
		</clipPath>
		<line class="st7" x1="635.2" y1="79.7" x2="635.2" y2="117.2"/>
	</g>
</g>
<g>
	<polygon class="st0" points="120.4,51.6 164.2,51.6 162.7,62.8 134.2,62.8 134.2,76.4 160.8,76.4 160.8,87.6 134.2,87.6 
		134.2,102.8 163,102.8 164.5,113.9 120.4,113.9 120.4,51.6 	"/>
	<path class="st0" d="M209.8,95.5v-0.8c0-4-3.2-7.2-7.2-7.2H188v15.2h14.6C206.6,102.7,209.8,99.5,209.8,95.5L209.8,95.5z
		 M208.5,69.5c0-5.6-4-7.2-6.9-7.2H188v14.5h13.6C205.1,76.9,208.5,73.9,208.5,69.5L208.5,69.5z M205.6,51.6c9,0,16.4,6.8,16.4,15.3
		c0,9.2-5.3,13.1-10.6,14.5v0.5c5.4,1.1,12.1,4.9,12.1,15.4c0,9.2-7.7,16.6-17.3,16.6h-31.4V51.6H205.6L205.6,51.6z"/>
	<path class="st0" d="M266.3,69.2c0-4.5-3.8-7.4-10.3-7.4c-6.7,0-10.5,2.4-10.5,5.8c0,11.8,35.3,3.9,35.3,26.6
		c0,14.8-10.6,20.5-25.7,20.5c-13.4,0-25.2-5.5-25.2-19.3c0-0.7,0.1-1.5,0.1-2h13.3c0,0.2-0.1,1-0.1,1.5c0,5.2,4,8.6,11.4,8.6
		c9.2,0,11.9-3.5,11.9-7.1c0-12-35.2-3.6-35.2-27.4c0-12.4,11.2-18.4,24.4-18.4c13,0,23.7,5.5,23.7,18.3V70h-13.2V69.2L266.3,69.2z"
		/>
	<path class="st0" d="M306.4,91h17.3c-2.7-8.2-5.5-16.4-8.4-24.4h-0.5L306.4,91L306.4,91z M302.5,101.7l-4.4,12.3h-13.5l22.6-62.3
		H324l22.6,62.3h-14.7l-4.5-12.3H302.5L302.5,101.7z"/>
	<text transform="matrix(1 0 0 1 44.681 141.8042)" class="st4 st5 st8">Ec</text>
	<text transform="matrix(1 0 0 1 61.3294 141.8042)" class="st4 st5 st8">on</text>
	<text transform="matrix(1 0 0 1 78.4231 141.8042)" class="st4 st5 st8">omi</text>
	<text transform="matrix(1 0 0 1 103.72 141.8042)" class="st4 st5 st8">cs </text>
	<text transform="matrix(1 0 0 1 123.4856 141.8042)" class="st4 st5 st8">&amp; </text>
	<text transform="matrix(1 0 0 1 138.9466 141.8042)" class="st4 st5 st8">Bu</text>
	<text transform="matrix(1 0 0 1 157.8763 141.8042)" class="st4 st5 st8">si</text>
	<text transform="matrix(1 0 0 1 169.8763 141.8042)" class="st4 st5 st8">ness</text>
	<text transform="matrix(1 0 0 1 201.9856 141.8042)" class="st4 st5 st8"> </text>
	<text transform="matrix(1 0 0 1 205.8138 141.8042)" class="st4 st5 st8">St</text>
	<text transform="matrix(1 0 0 1 221.2981 141.8042)" class="st4 st5 st8">ud</text>
	<text transform="matrix(1 0 0 1 238.1185 141.8042)" class="st4 st5 st8">en</text>
	<text transform="matrix(1 0 0 1 255.6106 141.8042)" class="st4 st5 st8">t </text>
	<text transform="matrix(1 0 0 1 265.181 141.8042)" class="st4 st5 st8">A</text>
	<text transform="matrix(1 0 0 1 276.1732 141.8042)" class="st4 st5 st8">sso</text>
	<text transform="matrix(1 0 0 1 299.3294 141.8042)" class="st4 st5 st8">ci</text>
	<text transform="matrix(1 0 0 1 312.0091 141.8042)" class="st4 st5 st8">at</text>
	<text transform="matrix(1 0 0 1 326.8138 141.8042)" class="st4 st5 st8">io</text>
	<text transform="matrix(1 0 0 1 339.4075 141.8042)" class="st4 st5 st8">n</text>
	<polygon class="st1" points="106.5,82.8 75.3,82.8 75.3,51.6 106.5,51.6 106.5,82.8 	"/>
	<polygon class="st2" points="106.5,113.9 75.3,113.9 75.3,82.8 106.5,82.8 106.5,113.9 	"/>
	<polygon class="st3" points="75.3,113.9 44.2,113.9 44.2,82.8 75.3,82.8 75.3,113.9 	"/>
</g>
</svg>
