<?xml version="1.0" encoding="utf-8"?>
<!-- Generator: Adobe Illustrator 19.2.1, SVG Export Plug-In . SVG Version: 6.00 Build 0)  -->
<svg version="1.1" id="Layer_1" xmlns="http://www.w3.org/2000/svg" xmlns:xlink="http://www.w3.org/1999/xlink" x="0px" y="0px"
	 viewBox="0 0 380.1 43.8" style="enable-background:new 0 0 380.1 43.8;" xml:space="preserve">
<style type="text/css">
	.st0{fill:#788181;}
	.st1{fill:#5ACAEA;}
	.st2{fill:#0FA0C8;}
	.st3{fill:#8BD3EA;}
	.st4{fill:#353838;}
	.st5{font-family:'UniversLTStd-Cn';}
	.st6{font-size:19.2034px;}
	.st7{clip-path:url(#SVGID_2_);fill:none;stroke:#353838;stroke-miterlimit:10;}
</style>
<g>
	<polygon class="st0" points="47.3,4.1 72.8,4.1 71.9,10.6 55.3,10.6 55.3,18.5 70.8,18.5 70.8,25 55.3,25 55.3,33.9 72.1,33.9 
		73,40.4 47.3,40.4 47.3,4.1 	"/>
	<path class="st0" d="M99.3,29.6v-0.5c0-2.3-1.8-4.2-4.2-4.2h-8.5v8.8h8.5C97.4,33.8,99.3,32,99.3,29.6L99.3,29.6z M98.5,14.5
		c0-3.3-2.3-4.2-4-4.2h-7.9v8.5h7.9C96.6,18.8,98.5,17.1,98.5,14.5L98.5,14.5z M96.8,4.1c5.2,0,9.5,4,9.5,8.9c0,5.3-3.1,7.6-6.2,8.5
		v0.3c3.1,0.6,7,2.9,7,9c0,5.3-4.5,9.7-10,9.7H78.9V4.1H96.8L96.8,4.1z"/>
	<path class="st0" d="M132.1,14.4c0-2.6-2.2-4.3-6-4.3c-3.9,0-6.1,1.4-6.1,3.4c0,6.9,20.6,2.3,20.6,15.5c0,8.6-6.2,11.9-15,11.9
		c-7.8,0-14.6-3.2-14.6-11.2c0-0.4,0.1-0.9,0.1-1.2h7.7c0,0.1-0.1,0.6-0.1,0.8c0,3,2.3,5,6.7,5c5.3,0,6.9-2.1,6.9-4.1
		c0-7-20.4-2.1-20.4-16c0-7.2,6.5-10.7,14.2-10.7c7.6,0,13.8,3.2,13.8,10.6v0.6h-7.7V14.4L132.1,14.4z"/>
	<path class="st0" d="M155.4,27h10c-1.6-4.8-3.2-9.5-4.9-14.2h-0.3L155.4,27L155.4,27z M153.2,33.2l-2.5,7.1h-7.9L156,4.1h9.7
		l13.2,36.2h-8.6l-2.6-7.1H153.2L153.2,33.2z"/>
	<polygon class="st1" points="39.2,22.2 21.1,22.2 21.1,4.1 39.2,4.1 39.2,22.2 	"/>
	<polygon class="st2" points="39.2,40.4 21.1,40.4 21.1,22.2 39.2,22.2 39.2,40.4 	"/>
	<polygon class="st3" points="21.1,40.4 3,40.4 3,22.2 21.1,22.2 21.1,40.4 	"/>
	<text transform="matrix(1 0 0 1 200.7282 15.9387)" class="st4 st5 st6">Ec</text>
	<text transform="matrix(1 0 0 1 219.2517 15.9387)" class="st4 st5 st6">on</text>
	<text transform="matrix(1 0 0 1 238.2829 15.9387)" class="st4 st5 st6">omi</text>
	<text transform="matrix(1 0 0 1 266.4392 15.9387)" class="st4 st5 st6">cs </text>
	<text transform="matrix(1 0 0 1 288.4392 15.9387)" class="st4 st5 st6">&amp; </text>
	<text transform="matrix(1 0 0 1 305.6501 15.9387)" class="st4 st5 st6">Bu</text>
	<text transform="matrix(1 0 0 1 326.7126 15.9387)" class="st4 st5 st6">si</text>
	<text transform="matrix(1 0 0 1 340.0798 15.9387)" class="st4 st5 st6">ness</text>
	<text transform="matrix(1 0 0 1 375.8142 15.9387)" class="st4 st5 st6"> </text>
	<text transform="matrix(1 0 0 1 200.7282 38.9856)" class="st4 st5 st6">St</text>
	<text transform="matrix(1 0 0 1 217.9548 38.9856)" class="st4 st5 st6">ud</text>
	<text transform="matrix(1 0 0 1 236.6736 38.9856)" class="st4 st5 st6">en</text>
	<text transform="matrix(1 0 0 1 256.1501 38.9856)" class="st4 st5 st6">t </text>
	<text transform="matrix(1 0 0 1 266.7986 38.9856)" class="st4 st5 st6">A</text>
	<text transform="matrix(1 0 0 1 279.0407 38.9856)" class="st4 st5 st6">sso</text>
	<text transform="matrix(1 0 0 1 304.8142 38.9856)" class="st4 st5 st6">ci</text>
	<text transform="matrix(1 0 0 1 318.9236 38.9856)" class="st4 st5 st6">at</text>
	<text transform="matrix(1 0 0 1 335.3923 38.9856)" class="st4 st5 st6">io</text>
	<text transform="matrix(1 0 0 1 349.4236 38.9856)" class="st4 st5 st6">n</text>
	<g>
		<defs>
			<rect id="SVGID_1_" x="3" width="377.1" height="43.8"/>
		</defs>
		<clipPath id="SVGID_2_">
			<use xlink:href="#SVGID_1_"  style="overflow:visible;"/>
		</clipPath>
		<line class="st7" x1="190.3" y1="3.1" x2="190.3" y2="40.6"/>
	</g>
</g>
</svg>
