<svg id="Layer_1" data-name="Layer 1" xmlns="http://www.w3.org/2000/svg" viewBox="0 0 379.96 75.54"><defs><style>.cls-1{fill:#f7c529;}.cls-2{font-size:15.9px;fill:#231f20;font-family:Gagalin;}.cls-3{fill:#8ad2d5;}.cls-4{fill:#f15b4d;}</style></defs><title>wq-elections-colors</title><polygon class="cls-1" points="81.59 14.73 64.2 25.36 85.36 36.2 58.56 35.51 64.17 52.73 44.36 38.92 21.69 47.4 27.23 36.15 2.32 35.7 26.69 25.53 0 18.03 31.02 16.34 18.75 0 44.33 9.77 57.58 0.98 58.59 15.2 81.59 14.73"/><text class="cls-2" transform="translate(14.06 70.96)">#F7C529</text><polygon class="cls-3" points="179.94 11.76 163.71 24.07 185.84 32.75 159.1 34.73 166.39 51.31 145.31 39.54 123.6 50.23 127.98 38.49 103.16 40.53 126.39 27.97 99.09 23.17 129.79 18.39 115.95 3.36 142.38 10.54 154.68 0.47 157.1 14.52 179.94 11.76"/><text class="cls-2" transform="translate(113.58 70.49)">#89D2D4</text><polygon class="cls-4" points="276.82 14.42 261.37 23.87 280.18 33.5 256.36 32.89 261.34 48.19 243.74 35.92 223.59 43.46 228.51 33.46 206.38 33.06 228.03 24.02 204.31 17.36 231.88 15.85 220.97 1.33 243.71 10.02 255.48 2.2 256.38 14.84 276.82 14.42"/><text class="cls-2" transform="translate(211.95 69.49)">#F05A4D</text><polygon points="376.6 14.42 361.16 23.87 379.96 33.5 356.14 32.89 361.12 48.19 343.52 35.92 323.37 43.46 328.29 33.46 306.16 33.06 327.82 24.02 304.1 17.36 331.66 15.85 320.75 1.33 343.5 10.02 355.26 2.2 356.16 14.84 376.6 14.42"/><text class="cls-2" transform="translate(313.29 69.49)">#000000</text></svg>