<svg id="Layer_1" data-name="Layer 1" xmlns="http://www.w3.org/2000/svg" viewBox="0 0 362 162"><defs><style>.cls-1,.cls-3,.cls-4{fill:#231f20;}.cls-1,.cls-2{stroke:#000;stroke-linejoin:round;stroke-width:4px;}.cls-2{fill:#fff;stroke-linecap:round;}.cls-3{font-size:39.13px;font-family:Gagalin;}.cls-4{font-size:13px;font-family:Action Man;font-weight:700;}</style></defs><title>wq-elections-voice</title><path class="cls-1" d="M152,341.32v75H355.67c15,0,23.33,26,23.33,26v-101H152Z" transform="translate(-33 -328.32)"/><path class="cls-2" d="M166,330.32v74H369.67c15,0,23.33,26,23.33,26v-100H166Z" transform="translate(-33 -328.32)"/><text class="cls-3" transform="translate(141.53 64.27)">VOTE TODAY!</text><path class="cls-1" d="M240,425.32v37H72.33c-15,0-23.33,26-23.33,26v-63H240Z" transform="translate(-33 -328.32)"/><path class="cls-2" d="M226,408.32v42H58.33c-15,0-23.33,26-23.33,26v-68H226Z" transform="translate(-33 -328.32)"/><text class="cls-4" transform="translate(20 99.13)">vote online <tspan x="78.01" y="0">a</tspan><tspan x="84.38" y="0">t</tspan><tspan x="0" y="12">election</tspan><tspan x="54.15" y="12">s</tspan><tspan x="61.13" y="12">.asucd.edu</tspan></text></svg>