<?xml version="1.0" encoding="utf-8"?>
<!-- Generator: Adobe Illustrator 19.2.1, SVG Export Plug-In . SVG Version: 6.00 Build 0)  -->
<svg version="1.1" id="Layer_1" xmlns="http://www.w3.org/2000/svg" xmlns:xlink="http://www.w3.org/1999/xlink" x="0px" y="0px"
	 viewBox="0 0 373.5 105.5" style="enable-background:new 0 0 373.5 105.5;" xml:space="preserve">
<style type="text/css">
	.st0{fill:#808285;}
	.st1{font-family:'Montserrat-Regular';}
	.st2{font-size:12.119px;}
	.st3{fill:#C7C8CA;}
	.st4{fill:none;stroke:#808285;stroke-width:2;stroke-miterlimit:10;}
	.st5{fill:none;stroke:#808285;stroke-width:1.9;stroke-miterlimit:10;stroke-dasharray:3.325,3.325;}
	.st6{fill:none;stroke:#D1D3D4;stroke-width:1.9;stroke-miterlimit:10;stroke-dasharray:3.325,3.325;}
</style>
<text transform="matrix(1 0 0 1 110.4354 12.9686)"><tspan x="0" y="0" class="st0 st1 st2">Direct </tspan><tspan x="39.6" y="0" class="st0 st1 st2">C</tspan><tspan x="47.9" y="0" class="st0 st1 st2">ommuni</tspan><tspan x="100.2" y="0" class="st0 st1 st2">c</tspan><tspan x="106.7" y="0" class="st0 st1 st2">ation</tspan></text>
<text transform="matrix(1 0 0 1 248.2274 12.9686)" class="st3 st1 st2"> (email, meeting) </text>
<text transform="matrix(1 0 0 1 110.4354 52.8749)"><tspan x="0" y="0" class="st0 st1 st2">Indirect </tspan><tspan x="50.2" y="0" class="st0 st1 st2">C</tspan><tspan x="58.5" y="0" class="st0 st1 st2">ommuni</tspan><tspan x="110.7" y="0" class="st0 st1 st2">c</tspan><tspan x="117.3" y="0" class="st0 st1 st2">ation </tspan></text>
<text transform="matrix(1 0 0 1 261.9227 52.8749)"><tspan x="0" y="0" class="st3 st1 st2">(</tspan><tspan x="4.3" y="0" class="st3 st1 st2">C</tspan><tspan x="12.6" y="0" class="st3 st1 st2">C email) </tspan></text>
<text transform="matrix(1 0 0 1 110.4354 94.8202)"><tspan x="0" y="0" class="st0 st1 st2">C</tspan><tspan x="8.3" y="0" class="st0 st1 st2">ollabo</tspan><tspan x="45.9" y="0" class="st0 st1 st2">r</tspan><tspan x="50.4" y="0" class="st0 st1 st2">ation</tspan></text>
<text transform="matrix(1 0 0 1 191.9471 94.8202)" class="st3 st1 st2"> (if needed) </text>
<line class="st4" x1="30.8" y1="9.6" x2="88.5" y2="9.6"/>
<polygon class="st0" points="86.5,14.8 95.5,9.6 86.5,4.4 "/>
<line class="st5" x1="30.8" y1="52.9" x2="90.1" y2="52.9"/>
<line class="st6" x1="30.8" y1="91.9" x2="90.1" y2="91.9"/>
</svg>
