<?xml version="1.0" encoding="utf-8"?>
<!-- Generator: Adobe Illustrator 19.2.1, SVG Export Plug-In . SVG Version: 6.00 Build 0)  -->
<svg version="1.1" id="Layer_1" xmlns="http://www.w3.org/2000/svg" xmlns:xlink="http://www.w3.org/1999/xlink" x="0px" y="0px"
	 viewBox="0 0 792 612" style="enable-background:new 0 0 792 612;" xml:space="preserve">
<style type="text/css">
	.st0{fill:none;stroke:#808285;stroke-width:2;stroke-miterlimit:10;}
	.st1{fill:#808285;}
	.st2{fill:#584B9F;}
	.st3{fill:#E0C55A;}
	.st4{fill:#D76266;}
	.st5{fill:#496CB4;}
	.st6{fill:#FFFFFF;}
	.st7{font-family:'Montserrat-Regular';}
	.st8{font-size:12px;}
	.st9{font-size:9px;}
	.st10{fill:#C7C8CA;}
	.st11{fill:none;stroke:#D1D3D4;stroke-width:2;stroke-miterlimit:10;}
	.st12{fill:none;stroke:#D1D3D4;stroke-width:2;stroke-miterlimit:10;stroke-dasharray:3.54,5;}
	.st13{fill:none;stroke:#808285;stroke-width:2.185;stroke-miterlimit:10;}
	.st14{fill:#BCBEC0;}
	.st15{fill:none;stroke:#D1D3D4;stroke-width:1.9;stroke-miterlimit:10;stroke-dasharray:3.325,3.325;}
	.st16{fill:none;stroke:#808285;stroke-width:2;stroke-miterlimit:10;stroke-dasharray:3.5,5;}
	.st17{fill:none;stroke:#D1D3D4;stroke-width:2;stroke-miterlimit:10;stroke-dasharray:3,5;}
	.st18{fill:none;stroke:#808285;stroke-width:1.9;stroke-miterlimit:10;stroke-dasharray:3.325,3.325;}
</style>
<path d="M155.5,262.1h50.1H155.5z"/>
<line class="st0" x1="155.5" y1="262.1" x2="198.5" y2="262.1"/>
<polygon class="st1" points="197,267.1 205.7,262.1 197,257.1 "/>
<path d="M305.4,262.1h50.1H305.4z"/>
<line class="st0" x1="305.4" y1="262.1" x2="348.4" y2="262.1"/>
<polygon class="st1" points="346.9,267.1 355.6,262.1 346.9,257.1 "/>
<path d="M456.9,210H507H456.9z"/>
<line class="st0" x1="456.9" y1="210" x2="499.9" y2="210"/>
<polygon class="st1" points="498.4,214.9 507,210 498.4,205 "/>
<path d="M585.7,205.7h50.1H585.7z"/>
<line class="st0" x1="585.7" y1="205.7" x2="628.6" y2="205.7"/>
<polygon class="st1" points="627.2,210.7 635.8,205.7 627.2,200.7 "/>
<path d="M585.7,321.3h50.1H585.7z"/>
<line class="st0" x1="585.7" y1="321.3" x2="628.6" y2="321.3"/>
<polygon class="st1" points="627.2,326.3 635.8,321.3 627.2,316.3 "/>
<path d="M456.9,321.3H507H456.9z"/>
<line class="st0" x1="456.9" y1="321.3" x2="499.9" y2="321.3"/>
<polygon class="st1" points="498.4,326.3 507,321.3 498.4,316.3 "/>
<path d="M397.8,374.5v-50.1V374.5z"/>
<line class="st0" x1="397.8" y1="324.3" x2="397.8" y2="367.3"/>
<polygon class="st1" points="392.8,365.9 397.8,374.5 402.8,365.9 "/>
<path d="M431.6,401.1V351V401.1z"/>
<line class="st0" x1="431.6" y1="401.1" x2="431.6" y2="358.1"/>
<polygon class="st1" points="436.6,359.6 431.6,351 426.7,359.6 "/>
<rect x="55.5" y="233.9" class="st2" width="100" height="56.4"/>
<rect x="214.3" y="233.9" class="st3" width="100" height="56.4"/>
<rect x="366.6" y="177.5" class="st3" width="100" height="169.1"/>
<rect x="518.9" y="290.3" class="st4" width="100" height="56.4"/>
<rect x="640.2" y="290.3" class="st4" width="64.7" height="56.4"/>
<rect x="518.9" y="177.5" class="st5" width="100" height="56.4"/>
<rect x="640.2" y="177.5" class="st5" width="64.7" height="56.4"/>
<text transform="matrix(1 0 0 1 85.2969 265.9199)" class="st6 st7 st8">Client</text>
<text transform="matrix(1 0 0 1 234.0249 260.0879)"><tspan x="0" y="0" class="st6 st7 st8">Mar</tspan><tspan x="22.9" y="0" class="st6 st7 st8">k</tspan><tspan x="29.7" y="0" class="st6 st7 st8">eting</tspan></text>
<text transform="matrix(1 0 0 1 234.0249 274.4883)"><tspan x="0" y="0" class="st6 st7 st8">Direc</tspan><tspan x="31.3" y="0" class="st6 st7 st8">t</tspan><tspan x="36.1" y="0" class="st6 st7 st8">or</tspan></text>
<g>
	<text transform="matrix(1 0 0 1 377.4814 201.6895)"><tspan x="0" y="0" class="st6 st7 st9">Bri</tspan><tspan x="12.5" y="0" class="st6 st7 st9">e</tspan><tspan x="17.7" y="0" class="st6 st7 st9">f</tspan></text>
	<text transform="matrix(1 0 0 1 377.4814 218.6909)"><tspan x="0" y="0" class="st6 st7 st9">C</tspan><tspan x="6.1" y="0" class="st6 st7 st9">ollabo</tspan><tspan x="34.1" y="0" class="st6 st7 st9">r</tspan><tspan x="37.5" y="0" class="st6 st7 st9">ation</tspan></text>
	<text transform="matrix(1 0 0 1 377.4814 235.6919)"><tspan x="0" y="0" class="st6 st7 st9">I</tspan><tspan x="2.7" y="0" class="st6 st7 st9">n</tspan><tspan x="8.5" y="0" class="st6 st7 st9">v</tspan><tspan x="13.1" y="0" class="st6 st7 st9">oi</tspan><tspan x="21.3" y="0" class="st6 st7 st9">c</tspan><tspan x="26.2" y="0" class="st6 st7 st9">e/Recharge</tspan></text>
	<text transform="matrix(1 0 0 1 377.4814 252.6929)"><tspan x="0" y="0" class="st6 st7 st9">Payment Quo</tspan><tspan x="61.7" y="0" class="st6 st7 st9">t</tspan><tspan x="65.3" y="0" class="st6 st7 st9">e</tspan></text>
	<text transform="matrix(1 0 0 1 377.4814 269.6938)"><tspan x="0" y="0" class="st6 st7 st9">Order ma</tspan><tspan x="42.8" y="0" class="st6 st7 st9">t</tspan><tspan x="46.4" y="0" class="st6 st7 st9">erials</tspan></text>
</g>
<rect x="366.6" y="380.8" class="st3" width="100" height="104.9"/>
<text transform="matrix(1 0 0 1 375.082 402.7422)"><tspan x="0" y="0" class="st6 st7 st8">Mar</tspan><tspan x="22.9" y="0" class="st6 st7 st8">k</tspan><tspan x="29.7" y="0" class="st6 st7 st8">eting</tspan></text>
<text transform="matrix(1 0 0 1 375.082 417.1426)"><tspan x="0" y="0" class="st6 st7 st8">C</tspan><tspan x="8.2" y="0" class="st6 st7 st8">ommit</tspan><tspan x="49" y="0" class="st6 st7 st8">t</tspan><tspan x="53.8" y="0" class="st6 st7 st8">ee</tspan></text>
<text transform="matrix(1 0 0 1 375.082 445.9424)"><tspan x="0" y="0" class="st6 st7 st8">Internet &amp; </tspan><tspan x="0" y="14.4" class="st6 st7 st8">Networking </tspan><tspan x="0" y="28.8" class="st6 st7 st8">Committee</tspan></text>
<text transform="matrix(1 0 0 1 535.6064 201.6943)"><tspan x="0" y="0" class="st6 st7 st8">G</tspan><tspan x="9" y="0" class="st6 st7 st8">r</tspan><tspan x="13.5" y="0" class="st6 st7 st8">aphics</tspan></text>
<text transform="matrix(1 0 0 1 535.6064 216.0942)" class="st6 st7 st8">Lead</text>
<text transform="matrix(1 0 0 1 651.2451 209.9521)" class="st6 st7 st9">Designer</text>
<text transform="matrix(1 0 0 1 643.6934 322.749)"><tspan x="0" y="0" class="st6 st7 st9">Prog</tspan><tspan x="21" y="0" class="st6 st7 st9">r</tspan><tspan x="24.4" y="0" class="st6 st7 st9">ammer</tspan></text>
<text transform="matrix(1 0 0 1 983.0493 496.7111)"><tspan x="0" y="0" class="st1 st7" style="font-size:12.119px;">Direct </tspan><tspan x="39.6" y="0" class="st1 st7" style="font-size:12.119px;">C</tspan><tspan x="47.9" y="0" class="st1 st7" style="font-size:12.119px;">ommuni</tspan><tspan x="100.2" y="0" class="st1 st7" style="font-size:12.119px;">c</tspan><tspan x="106.7" y="0" class="st1 st7" style="font-size:12.119px;">ation</tspan></text>
<text transform="matrix(1 0 0 1 1120.8413 496.7111)" class="st10 st7" style="font-size:12.119px;"> (email, meeting) </text>
<text transform="matrix(1 0 0 1 983.0493 536.6173)"><tspan x="0" y="0" class="st1 st7" style="font-size:12.119px;">Indirect </tspan><tspan x="50.2" y="0" class="st1 st7" style="font-size:12.119px;">C</tspan><tspan x="58.5" y="0" class="st1 st7" style="font-size:12.119px;">ommuni</tspan><tspan x="110.7" y="0" class="st1 st7" style="font-size:12.119px;">c</tspan><tspan x="117.3" y="0" class="st1 st7" style="font-size:12.119px;">ation </tspan></text>
<text transform="matrix(1 0 0 1 1134.5366 536.6173)"><tspan x="0" y="0" class="st10 st7" style="font-size:12.119px;">(</tspan><tspan x="4.3" y="0" class="st10 st7" style="font-size:12.119px;">C</tspan><tspan x="12.6" y="0" class="st10 st7" style="font-size:12.119px;">C email) </tspan></text>
<text transform="matrix(1 0 0 1 983.0493 578.5626)"><tspan x="0" y="0" class="st1 st7" style="font-size:12.119px;">C</tspan><tspan x="8.3" y="0" class="st1 st7" style="font-size:12.119px;">ollabo</tspan><tspan x="45.9" y="0" class="st1 st7" style="font-size:12.119px;">r</tspan><tspan x="50.4" y="0" class="st1 st7" style="font-size:12.119px;">ation</tspan></text>
<text transform="matrix(1 0 0 1 1064.561 578.5626)" class="st10 st7" style="font-size:12.119px;"> (if needed) </text>
<text transform="matrix(1 0 0 1 531.3643 315.3086)" class="st6 st7 st8">Lead</text>
<text transform="matrix(1 0 0 1 531.3643 329.709)"><tspan x="0" y="0" class="st6 st7 st8">Prog</tspan><tspan x="28" y="0" class="st6 st7 st8">r</tspan><tspan x="32.5" y="0" class="st6 st7 st8">ammer</tspan></text>
<text transform="matrix(1 -9.033320e-03 9.033320e-03 1 96.8037 322.7744)" class="st1 st7 st8">1</text>
<text transform="matrix(1 -9.033320e-03 9.033320e-03 1 264.2822 322.7735)" class="st1 st7 st8">2</text>
<text transform="matrix(1 -9.033320e-03 9.033320e-03 1 416.6054 506.7992)" class="st1 st7 st8">3</text>
<text transform="matrix(1 -9.033320e-03 9.033320e-03 1 563.6963 389.3955)" class="st1 st7 st8">4</text>
<text transform="matrix(1 -9.033320e-03 9.033320e-03 1 668.376 389.3984)" class="st1 st7 st8">5</text>
<text transform="matrix(1 -9.033320e-03 9.033320e-03 1 411.6104 92.7495)" class="st1 st7 st8">6</text>
<line class="st11" x1="673.3" y1="233.9" x2="673.3" y2="235.6"/>
<line class="st11" x1="673.3" y1="288.5" x2="673.3" y2="290.3"/>
<polyline class="st12" points="666.6,265.9 615.5,265.9 470.1,265.9 "/>
<line class="st11" x1="468.4" y1="265.9" x2="466.6" y2="265.9"/>
<polyline class="st13" points="704.9,200.3 736.4,200.3 736.4,109.6 105.5,109.6 105.5,226.1 "/>
<polygon class="st1" points="100.1,224.5 105.5,233.9 111,224.5 "/>
<polyline class="st13" points="704.9,318.5 736.4,318.5 736.4,200.3 "/>
<path d="M903.4,493.3h67.3H903.4z"/>
<line class="st0" x1="903.4" y1="493.3" x2="961.1" y2="493.3"/>
<polygon class="st1" points="959.1,500 970.7,493.3 959.1,486.6 "/>
<path class="st14" d="M903.4,575.7h60.8H903.4z"/>
<line class="st15" x1="903.4" y1="575.7" x2="964.2" y2="575.7"/>
<line class="st16" x1="563.7" y1="109.6" x2="563.7" y2="177.5"/>
<line class="st16" x1="255.8" y1="109.6" x2="255.8" y2="233.9"/>
<line class="st17" x1="673.3" y1="239.2" x2="673.3" y2="286.8"/>
<line class="st18" x1="903.4" y1="536.6" x2="964.2" y2="536.6"/>
</svg>
