<?xml version="1.0" encoding="utf-8"?>
<!-- Generator: Adobe Illustrator 19.2.1, SVG Export Plug-In . SVG Version: 6.00 Build 0)  -->
<svg version="1.1" id="Layer_1" xmlns="http://www.w3.org/2000/svg" xmlns:xlink="http://www.w3.org/1999/xlink" x="0px" y="0px"
	 viewBox="0 0 792 441.5" style="enable-background:new 0 0 792 441.5;" xml:space="preserve">
<style type="text/css">
	.st0{fill:none;stroke:#808285;stroke-width:2;stroke-miterlimit:10;}
	.st1{fill:#808285;}
	.st2{fill:#584B9F;}
	.st3{fill:#E0C55A;}
	.st4{fill:#D76266;}
	.st5{fill:#496CB4;}
	.st6{fill:#FFFFFF;}
	.st7{font-family:'Montserrat-Regular';}
	.st8{font-size:12px;}
	.st9{font-size:9px;}
	.st10{fill:none;stroke:#D1D3D4;stroke-width:2;stroke-miterlimit:10;}
	.st11{fill:none;stroke:#D1D3D4;stroke-width:2;stroke-miterlimit:10;stroke-dasharray:3.54,5;}
	.st12{fill:none;stroke:#808285;stroke-width:2.185;stroke-miterlimit:10;}
	.st13{fill:none;stroke:#808285;stroke-width:2;stroke-miterlimit:10;stroke-dasharray:3.5,5;}
	.st14{fill:none;stroke:#D1D3D4;stroke-width:2;stroke-miterlimit:10;stroke-dasharray:3,5;}
</style>
<line class="st0" x1="155.5" y1="190.6" x2="198.5" y2="190.6"/>
<polygon class="st1" points="197,195.6 205.7,190.6 197,185.6 "/>
<line class="st0" x1="305.4" y1="190.6" x2="348.4" y2="190.6"/>
<polygon class="st1" points="346.9,195.6 355.6,190.6 346.9,185.6 "/>
<line class="st0" x1="456.9" y1="138.5" x2="499.9" y2="138.5"/>
<polygon class="st1" points="498.4,143.5 507,138.5 498.4,133.5 "/>
<line class="st0" x1="585.7" y1="134.2" x2="628.6" y2="134.2"/>
<polygon class="st1" points="627.2,139.2 635.8,134.2 627.2,129.3 "/>
<line class="st0" x1="585.7" y1="249.8" x2="628.6" y2="249.8"/>
<polygon class="st1" points="627.2,254.8 635.8,249.8 627.2,244.9 "/>
<line class="st0" x1="456.9" y1="249.8" x2="499.9" y2="249.8"/>
<polygon class="st1" points="498.4,254.8 507,249.8 498.4,244.9 "/>
<line class="st0" x1="397.8" y1="252.9" x2="397.8" y2="295.8"/>
<polygon class="st1" points="392.8,294.4 397.8,303 402.8,294.4 "/>
<line class="st0" x1="431.6" y1="329.6" x2="431.6" y2="286.7"/>
<polygon class="st1" points="436.6,288.1 431.6,279.5 426.7,288.1 "/>
<rect x="55.5" y="162.4" class="st2" width="100" height="56.4"/>
<rect x="214.3" y="162.4" class="st3" width="100" height="56.4"/>
<rect x="366.6" y="106" class="st3" width="100" height="169.1"/>
<rect x="518.9" y="218.8" class="st4" width="100" height="56.4"/>
<rect x="640.2" y="218.8" class="st4" width="64.7" height="56.4"/>
<rect x="518.9" y="106" class="st5" width="100" height="56.4"/>
<rect x="640.2" y="106" class="st5" width="64.7" height="56.4"/>
<text transform="matrix(1 0 0 1 85.2969 194.455)" class="st6 st7 st8">Client</text>
<text transform="matrix(1 0 0 1 234.0249 188.623)"><tspan x="0" y="0" class="st6 st7 st8">Mar</tspan><tspan x="22.9" y="0" class="st6 st7 st8">k</tspan><tspan x="29.7" y="0" class="st6 st7 st8">eting</tspan></text>
<text transform="matrix(1 0 0 1 234.0249 203.0234)"><tspan x="0" y="0" class="st6 st7 st8">Direc</tspan><tspan x="31.3" y="0" class="st6 st7 st8">t</tspan><tspan x="36.1" y="0" class="st6 st7 st8">or</tspan></text>
<g>
	<text transform="matrix(1 0 0 1 377.4814 130.2245)"><tspan x="0" y="0" class="st6 st7 st9">Bri</tspan><tspan x="12.5" y="0" class="st6 st7 st9">e</tspan><tspan x="17.7" y="0" class="st6 st7 st9">f</tspan></text>
	<text transform="matrix(1 0 0 1 377.4814 147.226)"><tspan x="0" y="0" class="st6 st7 st9">C</tspan><tspan x="6.1" y="0" class="st6 st7 st9">ollabo</tspan><tspan x="34.1" y="0" class="st6 st7 st9">r</tspan><tspan x="37.5" y="0" class="st6 st7 st9">ation</tspan></text>
	<text transform="matrix(1 0 0 1 377.4814 164.227)"><tspan x="0" y="0" class="st6 st7 st9">I</tspan><tspan x="2.7" y="0" class="st6 st7 st9">n</tspan><tspan x="8.5" y="0" class="st6 st7 st9">v</tspan><tspan x="13.1" y="0" class="st6 st7 st9">oi</tspan><tspan x="21.3" y="0" class="st6 st7 st9">c</tspan><tspan x="26.2" y="0" class="st6 st7 st9">e/Recharge</tspan></text>
	<text transform="matrix(1 0 0 1 377.4814 181.228)"><tspan x="0" y="0" class="st6 st7 st9">Payment Quo</tspan><tspan x="61.7" y="0" class="st6 st7 st9">t</tspan><tspan x="65.3" y="0" class="st6 st7 st9">e</tspan></text>
	<text transform="matrix(1 0 0 1 377.4814 198.2289)"><tspan x="0" y="0" class="st6 st7 st9">Order ma</tspan><tspan x="42.8" y="0" class="st6 st7 st9">t</tspan><tspan x="46.4" y="0" class="st6 st7 st9">erials</tspan></text>
</g>
<rect x="366.6" y="309.3" class="st3" width="100" height="104.9"/>
<text transform="matrix(1 0 0 1 375.082 331.2773)"><tspan x="0" y="0" class="st6 st7 st8">Mar</tspan><tspan x="22.9" y="0" class="st6 st7 st8">k</tspan><tspan x="29.7" y="0" class="st6 st7 st8">eting</tspan></text>
<text transform="matrix(1 0 0 1 375.082 345.6776)"><tspan x="0" y="0" class="st6 st7 st8">C</tspan><tspan x="8.2" y="0" class="st6 st7 st8">ommit</tspan><tspan x="49" y="0" class="st6 st7 st8">t</tspan><tspan x="53.8" y="0" class="st6 st7 st8">ee</tspan></text>
<text transform="matrix(1 0 0 1 375.082 374.4774)"><tspan x="0" y="0" class="st6 st7 st8">Internet &amp; </tspan><tspan x="0" y="14.4" class="st6 st7 st8">Networking </tspan><tspan x="0" y="28.8" class="st6 st7 st8">Committee</tspan></text>
<text transform="matrix(1 0 0 1 535.6064 130.2294)"><tspan x="0" y="0" class="st6 st7 st8">G</tspan><tspan x="9" y="0" class="st6 st7 st8">r</tspan><tspan x="13.5" y="0" class="st6 st7 st8">aphics</tspan></text>
<text transform="matrix(1 0 0 1 535.6064 144.6293)" class="st6 st7 st8">Lead</text>
<text transform="matrix(1 0 0 1 651.2451 138.4872)" class="st6 st7 st9">Designer</text>
<text transform="matrix(1 0 0 1 643.6934 251.2841)"><tspan x="0" y="0" class="st6 st7 st9">Prog</tspan><tspan x="21" y="0" class="st6 st7 st9">r</tspan><tspan x="24.4" y="0" class="st6 st7 st9">ammer</tspan></text>
<text transform="matrix(1 0 0 1 531.3643 243.8437)" class="st6 st7 st8">Lead</text>
<text transform="matrix(1 0 0 1 531.3643 258.244)"><tspan x="0" y="0" class="st6 st7 st8">Prog</tspan><tspan x="28" y="0" class="st6 st7 st8">r</tspan><tspan x="32.5" y="0" class="st6 st7 st8">ammer</tspan></text>
<line class="st10" x1="673.3" y1="162.4" x2="673.3" y2="164.2"/>
<line class="st10" x1="673.3" y1="217.1" x2="673.3" y2="218.8"/>
<polyline class="st11" points="666.6,194.5 615.5,194.5 470.1,194.5 "/>
<line class="st10" x1="468.4" y1="194.5" x2="466.6" y2="194.5"/>
<polyline class="st12" points="704.9,128.8 736.4,128.8 736.4,38.1 105.5,38.1 105.5,154.6 "/>
<polygon class="st1" points="100.1,153 105.5,162.4 111,153 "/>
<polyline class="st12" points="704.9,247 736.4,247 736.4,128.8 "/>
<line class="st13" x1="563.7" y1="38.1" x2="563.7" y2="106"/>
<line class="st13" x1="255.8" y1="38.1" x2="255.8" y2="162.4"/>
<line class="st14" x1="673.3" y1="167.7" x2="673.3" y2="215.3"/>
</svg>
