<?xml version="1.0" encoding="utf-8"?>
<!-- Generator: Adobe Illustrator 19.2.1, SVG Export Plug-In . SVG Version: 6.00 Build 0)  -->
<svg version="1.1" id="Layer_1" xmlns="http://www.w3.org/2000/svg" xmlns:xlink="http://www.w3.org/1999/xlink" x="0px" y="0px"
	 viewBox="0 0 792 1224" style="enable-background:new 0 0 792 1224;" xml:space="preserve">
<style type="text/css">
	.st0{fill:#808285;}
	.st1{font-family:'Montserrat-Regular';}
	.st2{font-size:12.119px;}
	.st3{fill:#C7C8CA;}
	.st4{fill:none;stroke:#808285;stroke-width:2;stroke-miterlimit:10;}
	.st5{fill:none;stroke:#808285;stroke-width:1.9;stroke-miterlimit:10;stroke-dasharray:3.325,3.325;}
	.st6{fill:none;stroke:#D1D3D4;stroke-width:1.9;stroke-miterlimit:10;stroke-dasharray:3.325,3.325;}
</style>
<text transform="matrix(1 0 0 1 311.0493 574.7111)"><tspan x="0" y="0" class="st0 st1 st2">Direct </tspan><tspan x="39.6" y="0" class="st0 st1 st2">C</tspan><tspan x="47.9" y="0" class="st0 st1 st2">ommuni</tspan><tspan x="100.2" y="0" class="st0 st1 st2">c</tspan><tspan x="106.7" y="0" class="st0 st1 st2">ation</tspan></text>
<text transform="matrix(1 0 0 1 448.8412 574.7111)" class="st3 st1 st2"> (email, meeting) </text>
<text transform="matrix(1 0 0 1 311.0493 614.6173)"><tspan x="0" y="0" class="st0 st1 st2">Indirect </tspan><tspan x="50.2" y="0" class="st0 st1 st2">C</tspan><tspan x="58.5" y="0" class="st0 st1 st2">ommuni</tspan><tspan x="110.7" y="0" class="st0 st1 st2">c</tspan><tspan x="117.3" y="0" class="st0 st1 st2">ation </tspan></text>
<text transform="matrix(1 0 0 1 462.5366 614.6173)"><tspan x="0" y="0" class="st3 st1 st2">(</tspan><tspan x="4.3" y="0" class="st3 st1 st2">C</tspan><tspan x="12.6" y="0" class="st3 st1 st2">C email) </tspan></text>
<text transform="matrix(1 0 0 1 311.0493 656.5626)"><tspan x="0" y="0" class="st0 st1 st2">C</tspan><tspan x="8.3" y="0" class="st0 st1 st2">ollabo</tspan><tspan x="45.9" y="0" class="st0 st1 st2">r</tspan><tspan x="50.4" y="0" class="st0 st1 st2">ation</tspan></text>
<text transform="matrix(1 0 0 1 392.561 656.5626)" class="st3 st1 st2"> (if needed) </text>
<path d="M231.4,571.3h67.3H231.4z"/>
<line class="st4" x1="231.4" y1="571.3" x2="289.1" y2="571.3"/>
<polygon class="st0" points="287.1,578 298.7,571.3 287.1,564.6 "/>
<line class="st5" x1="231.4" y1="614.6" x2="292.2" y2="614.6"/>
<line class="st6" x1="231.4" y1="653.7" x2="292.2" y2="653.7"/>
</svg>
