<svg id="Layer_2" data-name="Layer 2" xmlns="http://www.w3.org/2000/svg" xmlns:xlink="http://www.w3.org/1999/xlink" viewBox="0 0 792 612"><defs><style>.cls-1,.cls-14,.cls-16,.cls-17,.cls-18,.cls-19,.cls-21,.cls-22,.cls-23,.cls-25,.cls-26,.cls-43{fill:none;}.cls-2,.cls-27,.cls-38{fill:#2eb99a;}.cls-3{fill:#72c8b4;}.cls-33,.cls-4{fill:#f5ab34;}.cls-5{fill:#e78c24;}.cls-6{fill:#ffcc67;}.cls-7{fill:#fbe8c8;}.cls-8{fill:#30323a;}.cls-9{fill:#7b7a7a;}.cls-10{fill:#f1a9a0;}.cls-11{fill:#d2537f;}.cls-12{fill:#dcb2d3;}.cls-13{fill:#edc5a2;}.cls-14{stroke:#3b97d3;stroke-width:0.74px;}.cls-14,.cls-16,.cls-17,.cls-18,.cls-19,.cls-21,.cls-22,.cls-23,.cls-25,.cls-26,.cls-43{stroke-miterlimit:10;}.cls-15{clip-path:url(#clip-path);}.cls-16,.cls-17,.cls-18,.cls-19{stroke:#f68c3b;}.cls-16{stroke-width:0.37px;}.cls-17{stroke-width:0.37px;}.cls-18{stroke-width:0.38px;}.cls-19{stroke-width:0.38px;}.cls-20{font-size:35.8px;fill:#eecde2;font-family:Questa Slab;}.cls-21,.cls-22,.cls-23{stroke:#e68c24;}.cls-22,.cls-25{stroke-width:2px;}.cls-23{stroke-width:2.1px;}.cls-24{fill:#5d5e5e;}.cls-25{stroke:#72c8b4;}.cls-26{stroke:#cc5c56;}.cls-27{font-size:44px;}.cls-27,.cls-30,.cls-31,.cls-32,.cls-33,.cls-34,.cls-36,.cls-37,.cls-38,.cls-41,.cls-42{font-family:Work Sans;}.cls-27,.cls-30,.cls-31,.cls-32,.cls-33,.cls-34,.cls-36,.cls-38{font-weight:700;}.cls-28,.cls-34{fill:#fff;}.cls-29,.cls-30{fill:#2f3c4f;}.cls-30{font-size:35px;}.cls-31{font-size:36px;}.cls-31,.cls-32,.cls-42{fill:#f27170;}.cls-32,.cls-34{font-size:30px;}.cls-33,.cls-42{font-size:21px;}.cls-35{letter-spacing:-2px;}.cls-36,.cls-37,.cls-38{font-size:14px;}.cls-36,.cls-37{fill:#1a1a1a;}.cls-39{white-space:pre;}.cls-40{letter-spacing:-1px;}.cls-41{font-size:17px;fill:#c5d4e8;}.cls-43{stroke:#f27170;}</style><clipPath id="clip-path"><polygon class="cls-1" points="-28.92 242.26 41.28 263.93 46.74 260.04 -23.17 238.46 -28.92 242.26"/></clipPath></defs><title>iusd</title><rect class="cls-2" x="-14.6" width="806.6" height="616.42"/><circle class="cls-3" cx="97.72" cy="98.32" r="18.84"/><rect class="cls-3" x="93.17" y="112.91" width="7.87" height="8.98"/><rect class="cls-3" x="93.93" y="74.99" width="6.66" height="8.98"/><rect class="cls-3" x="112.84" y="92.16" width="7.46" height="8.98" transform="translate(213.22 -19.92) rotate(90)"/><rect class="cls-3" x="75.05" y="92.44" width="6.9" height="8.98" transform="translate(175.43 18.43) rotate(90)"/><rect class="cls-3" x="106.48" y="79.91" width="7.44" height="8.98" transform="translate(91.95 -53.2) rotate(45)"/><rect class="cls-3" x="79.81" y="106.72" width="7.14" height="8.98" transform="translate(103.06 -26.39) rotate(45)"/><rect class="cls-3" x="107.3" y="106.82" width="8" height="8.98" transform="translate(-46.11 111.3) rotate(-45)"/><rect class="cls-3" x="80.58" y="80.08" width="7.65" height="8.98" transform="translate(-35.08 84.46) rotate(-45)"/><circle class="cls-2" cx="97.46" cy="98.44" r="14.47"/><circle class="cls-3" cx="116" cy="577.44" r="18.84"/><rect class="cls-3" x="111.44" y="592.03" width="7.87" height="8.98"/><rect class="cls-3" x="112.2" y="554.1" width="6.66" height="8.98"/><rect class="cls-3" x="131.11" y="571.28" width="7.46" height="8.98" transform="translate(710.6 440.93) rotate(90)"/><rect class="cls-3" x="93.32" y="571.55" width="6.9" height="8.98" transform="translate(672.82 479.27) rotate(90)"/><rect class="cls-3" x="124.75" y="559.02" width="7.44" height="8.98" transform="translate(436.09 74.21) rotate(45)"/><rect class="cls-3" x="98.08" y="585.83" width="7.14" height="8.98" transform="translate(447.2 101.02) rotate(45)"/><rect class="cls-3" x="125.57" y="585.94" width="8" height="8.98" transform="translate(-379.55 264.55) rotate(-45)"/><rect class="cls-3" x="98.85" y="559.2" width="7.65" height="8.98" transform="translate(-368.52 237.7) rotate(-45)"/><circle class="cls-2" cx="115.74" cy="577.56" r="14.47"/><circle class="cls-3" cx="119.52" cy="61.57" r="11.45"/><rect class="cls-3" x="116.75" y="70.44" width="4.79" height="5.46"/><rect class="cls-3" x="117.22" y="47.39" width="4.05" height="5.46"/><rect class="cls-3" x="128.71" y="57.83" width="4.53" height="5.46" transform="translate(191.53 -70.42) rotate(90)"/><rect class="cls-3" x="105.74" y="58" width="4.19" height="5.46" transform="translate(168.56 -47.11) rotate(90)"/><rect class="cls-3" x="124.85" y="50.38" width="4.52" height="5.46" transform="translate(74.78 -74.32) rotate(45)"/><rect class="cls-3" x="108.64" y="66.68" width="4.34" height="5.46" transform="translate(81.53 -58.02) rotate(45)"/><rect class="cls-3" x="125.34" y="66.74" width="4.86" height="5.46" transform="translate(-11.7 110.7) rotate(-45)"/><rect class="cls-3" x="109.1" y="50.49" width="4.65" height="5.46" transform="translate(-4.99 94.38) rotate(-45)"/><circle class="cls-2" cx="119.37" cy="61.65" r="8.8"/><rect class="cls-4" x="-44.34" y="557.42" width="97.22" height="11.44" transform="translate(-217.06 45.3) rotate(-22.71)"/><rect class="cls-5" x="-48.76" y="546.87" width="97.22" height="11.44" transform="translate(-213.33 42.78) rotate(-22.71)"/><rect class="cls-6" x="-39.93" y="567.97" width="97.22" height="11.44" transform="translate(-220.79 47.82) rotate(-22.71)"/><path class="cls-7" d="M42.48,528.55l28.82,4.24a2.47,2.47,0,0,1,1.63,3.9L55.73,560.2Z"/><path class="cls-8" d="M65.86,532s-1,6.76,3.83,9.14l5.59-5.73A1.51,1.51,0,0,0,74,532.92Z"/><rect class="cls-4" x="80.54" y="324.02" width="97.22" height="11.44" transform="translate(134.73 -24.35) rotate(22.29)"/><rect class="cls-5" x="84.88" y="313.43" width="97.22" height="11.44" transform="translate(131.04 -26.78) rotate(22.29)"/><rect class="cls-6" x="76.2" y="334.6" width="97.22" height="11.44" transform="translate(138.42 -21.91) rotate(22.29)"/><path class="cls-7" d="M180.63,332.3L198,355.68a2.47,2.47,0,0,1-1.6,3.91L167.62,364Z"/><path class="cls-8" d="M194.73,351.27s-5.46,4.11-3.76,9.17l8-.1a1.51,1.51,0,0,0,.83-2.68Z"/><rect class="cls-9" x="80.61" y="293.87" width="5.8" height="34.31" transform="translate(124.22 -8.43) rotate(22.29)"/><path class="cls-10" d="M79.72,290.62h1.53a0,0,0,0,1,0,0v34.31a0,0,0,0,1,0,0H80.49a10.58,10.58,0,0,1-10.58-10.58V300.43a9.81,9.81,0,0,1,9.81-9.81Z" transform="translate(122.4 -5.67) rotate(22.29)"/><polygon class="cls-11" points="8.03 137.41 2.67 139.91 -28.92 242.26 -23.17 238.46 8.03 137.41"/><rect class="cls-12" x="-9.22" y="145.98" width="74.04" height="105.76" transform="translate(59.89 0.65) rotate(17.15)"/><polygon class="cls-13" points="-28.92 242.26 41.28 263.93 46.74 260.04 -23.17 238.46 -28.92 242.26"/><line class="cls-14" x1="-21.2" y1="239.07" x2="46.74" y2="260.04"/><g class="cls-15"><line class="cls-16" x1="-22.97" y1="239.49" x2="46.47" y2="260.92"/><line class="cls-17" x1="-24.17" y1="240.26" x2="45.14" y2="261.65"/><line class="cls-18" x1="-25.47" y1="240.99" x2="45.16" y2="262.79"/><line class="cls-19" x1="-26.52" y1="241.91" x2="43.94" y2="263.65"/></g><rect class="cls-11" x="-3.23" y="151.78" width="61.23" height="93.89" transform="translate(59.83 0.76) rotate(17.15)"/><text class="cls-20" transform="translate(11.82 177.79) rotate(17.15)">Aa</text><path class="cls-12" d="M-28.92,242.26l70.63,21.8a0.63,0.63,0,0,1,.42.79h0a0.63,0.63,0,0,1-.79.42l-69.69-21.51a1,1,0,0,1-.65-1.23Z"/><rect class="cls-6" x="-33.29" y="411.44" width="119.24" height="29.64" transform="translate(33.6 -0.75) rotate(4.51)"/><line class="cls-21" x1="0.73" y1="409.37" x2="0.23" y2="415.61"/><line class="cls-21" x1="10.99" y1="410.18" x2="10.5" y2="416.42"/><line class="cls-21" x1="30.9" y1="411.75" x2="30.4" y2="417.99"/><line class="cls-21" x1="41.48" y1="412.59" x2="40.98" y2="418.83"/><line class="cls-21" x1="52.2" y1="413.43" x2="51.71" y2="419.67"/><line class="cls-21" x1="62.06" y1="414.21" x2="61.57" y2="420.45"/><line class="cls-21" x1="72.5" y1="415.03" x2="72.01" y2="421.27"/><line class="cls-21" x1="81.08" y1="415.71" x2="80.58" y2="421.95"/><line class="cls-21" x1="20.09" y1="410.9" x2="19.6" y2="417.14"/><line class="cls-21" x1="6.02" y1="409.79" x2="5.16" y2="420.64"/><line class="cls-21" x1="16.2" y1="410.59" x2="15.34" y2="421.44"/><line class="cls-21" x1="36.87" y1="412.22" x2="36.02" y2="423.07"/><line class="cls-21" x1="47.05" y1="413.03" x2="46.2" y2="423.88"/><line class="cls-21" x1="57.24" y1="413.83" x2="56.38" y2="424.68"/><line class="cls-21" x1="76.75" y1="415.37" x2="75.9" y2="426.22"/><line class="cls-22" x1="25.56" y1="411.33" x2="24.1" y2="429.87"/><line class="cls-22" x1="68.55" y1="414.72" x2="67.08" y2="433.26"/><circle class="cls-6" cx="12.77" cy="47.72" r="23.47" transform="translate(-12.78 5.44) rotate(-16.16)"/><path class="cls-6" d="M-1.2,66.58A29.71,29.71,0,0,1,9.71,80.07L33,73.32s-2.24-5.63,2.45-19.61Z"/><path class="cls-23" d="M23.74,76.26s-8.32-32.71-1.83-35c4.61-1.6,3.6,15.92-3.36,15.09-6.8-.81-15.58-16.32-10.43-18C14,36.42,17.46,56.9,12.76,60c-7,4.63-17.57-7-14.21-9,5.6-3.28,19.82,27.31,19.82,27.31"/><rect class="cls-9" x="10.96" y="76.43" width="24.55" height="13.13" transform="translate(-22.18 9.74) rotate(-16.16)"/><rect class="cls-24" x="9.96" y="79.14" width="24.55" height="0.8" transform="translate(-21.26 9.33) rotate(-16.16)"/><rect class="cls-24" x="11.07" y="82.97" width="24.55" height="0.8" transform="translate(-22.28 9.79) rotate(-16.16)"/><rect class="cls-24" x="12.07" y="86.41" width="24.55" height="0.8" transform="translate(-23.2 10.2) rotate(-16.16)"/><rect class="cls-24" x="16.5" y="89.3" width="18.46" height="4.66" transform="translate(-24.48 10.78) rotate(-16.16)"/><line class="cls-25" x1="34.73" y1="21.22" x2="40.96" y2="15.9"/><line class="cls-25" x1="24.97" y1="17.12" x2="26.5" y2="9.7"/><line class="cls-25" x1="42.32" y1="32.02" x2="50.28" y2="28.8"/><path class="cls-26" d="M72.2,480s2.48,4.33,6.81,0"/><path class="cls-3" d="M29.69,343.89H1.83c-4.59,0-8.35-5.4-8.35-12v-27c0-6.6,3.76-12,8.35-12H29.69c4.59,0,8.35,5.4,8.35,12v27C38,338.49,34.28,343.89,29.69,343.89Z"/><path class="cls-3" d="M28.43,353a15.47,15.47,0,0,1-9.85-10.21H29.86s-3.29,4.74-.45,8.94A0.83,0.83,0,0,1,28.43,353Z"/><text class="cls-27" transform="translate(2.37 333.08)">?</text><path class="cls-3" d="M51.73,491.8l-6.32-.2-3.74,5.09a1.56,1.56,0,0,1-2.75-.49l-1.77-6.07-6-2a1.56,1.56,0,0,1-.39-2.76L36,481.84l0-6.32a1.56,1.56,0,0,1,2.51-1.22l5,3.87,6-1.92a1.56,1.56,0,0,1,1.94,2l-2.14,5.95L53,489.34A1.56,1.56,0,0,1,51.73,491.8Z"/><path class="cls-3" d="M111.65,462.32L108.27,458l-5.52.3a1.36,1.36,0,0,1-1.2-2.12l3.11-4.56-2-5.15a1.36,1.36,0,0,1,1.65-1.8l5.3,1.55,4.28-3.49a1.36,1.36,0,0,1,2.22,1l0.16,5.52,4.64,3a1.36,1.36,0,0,1-.28,2.42l-5.2,1.86L114,461.84A1.36,1.36,0,0,1,111.65,462.32Z"/><path class="cls-3" d="M130,244.36l-6.12-1.58-4.77,4.15a1.56,1.56,0,0,1-2.57-1.08l-0.39-6.31-5.42-3.26a1.56,1.56,0,0,1,.23-2.78l5.88-2.32L118.3,225a1.56,1.56,0,0,1,2.72-.64l4,4.88,6.3-.55a1.56,1.56,0,0,1,1.45,2.39l-3.39,5.33,2.47,5.82A1.56,1.56,0,0,1,130,244.36Z"/><rect class="cls-28" x="490.38" y="24.6" width="278.98" height="174.12"/><rect class="cls-28" x="490.38" y="220.78" width="278.98" height="174.12"/><rect class="cls-28" x="490.38" y="416.96" width="278.98" height="174.12"/><rect class="cls-28" x="129.47" width="343.18" height="337.25"/><rect class="cls-29" x="129.47" y="337.25" width="343.18" height="279.17"/><text class="cls-30" transform="translate(159.81 49.77)">Eleme<tspan x="107.13" y="0">n</tspan><tspan x="128.66" y="0">t</tspan><tspan x="143.85" y="0">ar</tspan><tspan x="178.71" y="0">y</tspan><tspan x="0" y="42">E</tspan><tspan x="21.73" y="42">duc</tspan><tspan x="85.33" y="42">a</tspan><tspan x="104.72" y="42">tion</tspan><tspan x="0" y="84">S</tspan><tspan x="22.4" y="84">pecialist</tspan><tspan x="0" y="126">Col</tspan><tspan x="56.21" y="126">l</tspan><tspan x="67.41" y="126">abo</tspan><tspan x="130.65" y="126">r</tspan><tspan x="145.11" y="126">a</tspan><tspan x="164.5" y="126">tion</tspan></text><text class="cls-31" transform="translate(573.91 74.24)">S<tspan x="22.93" y="0">AI -</tspan><tspan x="88.02" y="0"> </tspan><tspan x="98.6" y="0">1</tspan></text><text class="cls-31" transform="translate(567.71 267.05)">S<tspan x="22.93" y="0">AI - 2</tspan></text><text class="cls-32" transform="translate(513.03 459.5)">L<tspan x="17.76" y="0">earning Ce</tspan><tspan x="174.63" y="0">n</tspan><tspan x="193.08" y="0">te</tspan><tspan x="223.41" y="0">r</tspan></text><text class="cls-33" transform="translate(162.04 467.72)">N<tspan x="15.39" y="0">ov</tspan><tspan x="39.25" y="0">embe</tspan><tspan x="96.75" y="0">r</tspan></text><text class="cls-33" transform="translate(162.04 550.12)">M<tspan x="18.61" y="0">a</tspan><tspan x="30.66" y="0">r</tspan><tspan x="39.31" y="0">ch</tspan></text><text class="cls-34" transform="translate(162.04 405.56)">D<tspan x="21.48" y="0">i</tspan><tspan x="29.94" y="0">s</tspan><tspan x="45.81" y="0">cussion</tspan><tspan x="158.46" y="0"> </tspan><tspan class="cls-35" x="167.01" y="0">T</tspan><tspan x="183.12" y="0">opics</tspan></text><text class="cls-36" transform="translate(504.07 301.16)">N<tspan x="10.26" y="0">ov</tspan><tspan x="26.17" y="0">embe</tspan><tspan x="64.5" y="0">r</tspan><tspan x="70.15" y="0"> </tspan><tspan x="74.27" y="0">1</tspan><tspan x="80.26" y="0">0</tspan><tspan x="89.04" y="0">, 2016</tspan></text><text class="cls-36" transform="translate(504.07 324.17)">M<tspan x="12.4" y="0">a</tspan><tspan x="20.44" y="0">r</tspan><tspan x="26.21" y="0">ch </tspan><tspan x="47.12" y="0">9</tspan><tspan x="55.65" y="0">, 201</tspan><tspan x="87.04" y="0">7</tspan></text><text class="cls-37" transform="translate(504.07 346.26)">3:15 pm - 4:15 pm</text><text class="cls-38" transform="translate(504.07 374.58)">S<tspan x="8.96" y="0">pringb</tspan><tspan x="52.93" y="0">r</tspan><tspan x="58.7" y="0">oo</tspan><tspan x="75.61" y="0">k</tspan><tspan class="cls-39" x="83.8" y="0"> Eleme</tspan><tspan x="130.94" y="0">n</tspan><tspan x="139.55" y="0">t</tspan><tspan x="145.63" y="0">ar</tspan><tspan x="159.57" y="0">y</tspan></text><text class="cls-36" transform="translate(504.07 499.45)">N<tspan x="10.26" y="0">ov</tspan><tspan x="26.17" y="0">embe</tspan><tspan x="64.5" y="0">r</tspan><tspan x="70.15" y="0"> </tspan><tspan x="74.27" y="0">1</tspan><tspan class="cls-40" x="80.26" y="0">7</tspan><tspan x="87.27" y="0">, 2016</tspan></text><text class="cls-36" transform="translate(504.07 522.47)">M<tspan x="12.4" y="0">a</tspan><tspan x="20.44" y="0">r</tspan><tspan x="26.21" y="0">ch</tspan><tspan x="42.84" y="0"> </tspan><tspan x="46.96" y="0">16, 201</tspan><tspan x="92.97" y="0">7</tspan></text><text class="cls-37" transform="translate(504.07 544.56)">3:15 pm - 4:15 pm</text><text class="cls-38" transform="translate(504.07 572.87)">U<tspan x="9.97" y="0">ni</tspan><tspan x="22.58" y="0">v</tspan><tspan x="30.13" y="0">e</tspan><tspan x="38.28" y="0">r</tspan><tspan x="44" y="0">sit</tspan><tspan x="61.39" y="0">y</tspan><tspan class="cls-39" x="68.87" y="0"> Par</tspan><tspan x="96.14" y="0">k</tspan><tspan class="cls-39" x="104.33" y="0"> Eleme</tspan><tspan x="151.46" y="0">n</tspan><tspan x="160.07" y="0">t</tspan><tspan x="166.15" y="0">ar</tspan><tspan x="180.09" y="0">y</tspan></text><text class="cls-36" transform="translate(504.07 104.91)">N<tspan x="10.26" y="0">ov</tspan><tspan x="26.17" y="0">embe</tspan><tspan x="64.5" y="0">r</tspan><tspan class="cls-39" x="70.15" y="0"> 3, 2016</tspan></text><text class="cls-36" transform="translate(504.07 127.93)">M<tspan x="12.4" y="0">a</tspan><tspan x="20.44" y="0">r</tspan><tspan x="26.21" y="0">ch 2, 201</tspan><tspan x="86.79" y="0">7</tspan></text><text class="cls-37" transform="translate(504.07 150.02)">3:15 pm - 4:15 pm</text><text class="cls-38" transform="translate(504.07 178.33)">S<tspan x="8.96" y="0">pringb</tspan><tspan x="52.93" y="0">r</tspan><tspan x="58.7" y="0">oo</tspan><tspan x="75.61" y="0">k</tspan><tspan class="cls-39" x="83.8" y="0"> Eleme</tspan><tspan x="130.94" y="0">n</tspan><tspan x="139.55" y="0">t</tspan><tspan x="145.63" y="0">ar</tspan><tspan x="159.57" y="0">y</tspan></text><text class="cls-41" transform="translate(162.04 490.4)">IE<tspan x="15.88" y="0">P</tspan><tspan class="cls-39" x="25.86" y="0"> Goa</tspan><tspan x="63.92" y="0">l</tspan><tspan x="68.53" y="0"> </tspan><tspan x="73.92" y="0">W</tspan><tspan x="89.83" y="0">riting </tspan><tspan x="138.58" y="0">(</tspan><tspan x="143.87" y="0">GoalBoo</tspan><tspan x="213.11" y="0">k</tspan><tspan x="222.38" y="0">) </tspan><tspan x="0" y="20.4">&amp; D</tspan><tspan x="28.64" y="20.4">a</tspan><tspan x="37.93" y="20.4">t</tspan><tspan x="45.05" y="20.4">a</tspan><tspan class="cls-39" x="54.28" y="20.4"> Collection</tspan></text><text class="cls-42" transform="translate(162.04 212.01)"><tspan class="cls-40">T</tspan><tspan x="11.87" y="0">w</tspan><tspan x="29.84" y="0">o g</tspan><tspan x="61.03" y="0">r</tspan><tspan x="69.45" y="0">e</tspan><tspan x="81.65" y="0">a</tspan><tspan x="93.2" y="0">t oppo</tspan><tspan x="160.8" y="0">r</tspan><tspan x="168.96" y="0">tunities</tspan><tspan x="247.59" y="0"> </tspan><tspan x="254.08" y="0">to </tspan><tspan x="0" y="25.2">me</tspan><tspan x="32.13" y="25.2">e</tspan><tspan x="44.08" y="25.2">t</tspan><tspan x="52.98" y="25.2"> </tspan><tspan x="59.35" y="25.2">wi</tspan><tspan x="83.39" y="25.2">t</tspan><tspan x="92.38" y="25.2">h</tspan><tspan x="105.38" y="25.2"> </tspan><tspan x="111.76" y="25.2">y</tspan><tspan x="123.17" y="25.2">ou</tspan><tspan x="148.89" y="25.2">r</tspan><tspan class="cls-39" x="157.14" y="25.2"> p</tspan><tspan x="177.18" y="25.2">r</tspan><tspan x="185.6" y="25.2">o</tspan><tspan x="198.28" y="25.2">g</tspan><tspan x="209.92" y="25.2">r</tspan><tspan x="218.38" y="25.2">am </tspan><tspan x="0" y="50.4">colle</tspan><tspan x="49.92" y="50.4">a</tspan><tspan x="61.93" y="50.4">gues</tspan><tspan x="109.87" y="50.4"> </tspan><tspan x="116.36" y="50.4">to sha</tspan><tspan x="180.89" y="50.4">r</tspan><tspan x="189.31" y="50.4">e ideas, </tspan><tspan x="0" y="75.6">r</tspan><tspan x="8.42" y="75.6">e</tspan><tspan x="20.62" y="75.6">s</tspan><tspan x="31.71" y="75.6">ou</tspan><tspan x="57.43" y="75.6">r</tspan><tspan x="65.85" y="75.6">ces and best </tspan><tspan x="0" y="100.8">p</tspan><tspan x="13.21" y="100.8">r</tspan><tspan x="21.67" y="100.8">a</tspan><tspan x="33.62" y="100.8">ctices.</tspan></text><text class="cls-41" transform="translate(162.04 576.81)">I<tspan x="4.95" y="0">n</tspan><tspan x="15.35" y="0">f</tspan><tspan x="21.79" y="0">orma</tspan><tspan x="64.89" y="0">l</tspan><tspan x="69.5" y="0"> </tspan><tspan x="74.61" y="0">A</tspan><tspan x="85.75" y="0">ssessme</tspan><tspan x="157.54" y="0">n</tspan><tspan x="167.94" y="0">ts</tspan></text><line class="cls-43" x1="504.07" y1="473.96" x2="755.05" y2="473.96"/><line class="cls-43" x1="559.31" y1="275.09" x2="696.43" y2="275.09"/><line class="cls-43" x1="562.36" y1="81.48" x2="696.43" y2="81.48"/></svg>