<?xml version="1.0" encoding="utf-8"?>
<!-- Generator: Adobe Illustrator 19.2.1, SVG Export Plug-In . SVG Version: 6.00 Build 0)  -->
<svg version="1.1" id="Layer_1" xmlns="http://www.w3.org/2000/svg" xmlns:xlink="http://www.w3.org/1999/xlink" x="0px" y="0px"
	 viewBox="0 0 315.6 389.8" style="enable-background:new 0 0 315.6 389.8;" xml:space="preserve">
<style type="text/css">
	.st0{fill:none;stroke:#EAEAEA;stroke-width:2.6992;stroke-linecap:round;stroke-miterlimit:10;}
	.st1{fill:none;stroke:#EAEAEA;stroke-width:1.545;stroke-linecap:round;stroke-miterlimit:10;}
	.st2{fill:#CCC3C3;}
	.st3{fill:#B5A9A9;}
	.st4{fill:#EAEAEA;}
	.st5{fill:#8C8585;}
	.st6{fill:#686767;}
	.st7{clip-path:url(#SVGID_2_);fill:#686767;}
	.st8{fill:#9B9191;}
	.st9{fill:#343838;}
	.st10{fill:#CCC3C3;stroke:#343838;stroke-width:3.09;stroke-miterlimit:10;}
	.st11{clip-path:url(#SVGID_4_);fill:#B5A9A9;}
	.st12{clip-path:url(#SVGID_6_);fill:#EAEAEA;}
	.st13{clip-path:url(#SVGID_8_);fill:#B5A9A9;}
	.st14{fill:#212323;}
	.st15{clip-path:url(#SVGID_10_);fill:#CCC3C3;}
	.st16{clip-path:url(#SVGID_12_);}
	.st17{clip-path:url(#SVGID_14_);}
	.st18{clip-path:url(#SVGID_16_);}
</style>
<path class="st0" d="M136.4,59.6c0,0,10.7-2.5,12.1,9.4"/>
<path class="st1" d="M97.4,81.6c0,0,4.9-1.1,5.5,4.3"/>
<g>
	
		<rect x="75.6" y="234.9" transform="matrix(0.4993 0.8664 -0.8664 0.4993 269.2368 63.0858)" class="st2" width="8.8" height="59.1"/>
	<path class="st3" d="M80.7,259.7c0,0,4.9,0.8,4.2,7.2l23-13.9l-6.3-6.2L80.7,259.7z"/>
	
		<rect x="79.9" y="240.9" transform="matrix(-0.4993 -0.8664 0.8664 -0.4993 -110.941 470.1431)" class="st4" width="1" height="52.4"/>
	<polygon class="st5" points="210.6,273.5 252.5,258.9 252.5,258.9 249.6,231 207,239.9 	"/>
	
		<rect x="77.1" y="232.7" transform="matrix(0.4993 0.8664 -0.8664 0.4993 266.1459 63.308)" class="st3" width="2.5" height="58.4"/>
	<polygon class="st6" points="207.7,246.4 250.1,235.3 249.3,228.7 206.5,235.6 	"/>
	<g>
		<defs>
			
				<rect id="SVGID_1_" x="77.1" y="232.7" transform="matrix(0.4993 0.8664 -0.8664 0.4993 266.1459 63.308)" width="2.5" height="58.4"/>
		</defs>
		<clipPath id="SVGID_2_">
			<use xlink:href="#SVGID_1_"  style="overflow:visible;"/>
		</clipPath>
		<path class="st7" d="M80.2,259.5c0,0,5,0.8,4.3,7.4l23.3-14.3l-6.5-6.4L80.2,259.5z"/>
	</g>
	
		<rect x="69.7" y="234" transform="matrix(0.9944 -0.1058 0.1058 0.9944 -24.5815 16.8913)" class="st2" width="154.4" height="12.3"/>
	<polygon class="st3" points="69.3,242.1 138.6,227.9 271.6,213.7 223,226 	"/>
	
		<ellipse transform="matrix(0.9944 -0.1058 0.1058 0.9944 -23.927 15.2537)" class="st5" cx="131.8" cy="233.1" rx="12.1" ry="1.8"/>
	<ellipse transform="matrix(0.9944 -0.1058 0.1058 0.9944 -22.955 20.8202)" class="st5" cx="184.7" cy="226.7" rx="6.3" ry="1.3"/>
	<rect x="129.7" y="103" transform="matrix(0.9939 -0.1107 0.1107 0.9939 -11.7342 15.699)" class="st8" width="11.7" height="21"/>
	
		<rect x="89.9" y="113.4" transform="matrix(0.9939 -0.1107 0.1107 0.9939 -12.3907 11.5993)" class="st3" width="16.7" height="7.9"/>
	
		<rect x="138.8" y="93.6" transform="matrix(0.9939 -0.1107 0.1107 0.9939 -10.8166 17.0043)" class="st3" width="17.9" height="24.6"/>
	
		<rect x="74.1" y="55.8" transform="matrix(0.9939 -0.1107 0.1107 0.9939 -8.7047 13.352)" class="st2" width="83.6" height="58.5"/>
	<rect x="79.6" y="58" transform="matrix(0.9939 -0.1107 0.1107 0.9939 -9.0775 11.1167)" class="st3" width="31.9" height="58.5"/>
	
		<rect x="91.6" y="98.8" transform="matrix(0.9939 -0.1107 0.1107 0.9939 -10.7252 14.5554)" class="st3" width="68.2" height="10.2"/>
	<g>
		
			<ellipse transform="matrix(0.9944 -0.1058 0.1058 0.9944 -23.8737 15.2535)" class="st2" cx="131.8" cy="232.6" rx="6.9" ry="0.9"/>
		
			<rect x="118.3" y="113.8" transform="matrix(0.9939 -0.1107 0.1107 0.9939 -18.4243 14.9264)" class="st2" width="13.7" height="119.1"/>
		
			<rect x="119.6" y="115.1" transform="matrix(0.9939 -0.1107 0.1107 0.9939 -18.5431 14.501)" class="st3" width="3.4" height="118.3"/>
		
			<rect x="127.9" y="114.5" transform="matrix(0.9939 -0.1107 0.1107 0.9939 -18.4237 15.2803)" class="st4" width="0.9" height="118.1"/>
	</g>
	<path class="st9" d="M130.1,148.7l-15.3,1.7c-0.6,0.1-1.2-0.4-1.3-1l-0.1-1.2c-0.1-0.6,0.4-1.2,1-1.3l15.3-1.7
		c0.6-0.1,1.2,0.4,1.3,1l0.1,1.2C131.2,148,130.7,148.6,130.1,148.7z"/>
	<path class="st9" d="M126.6,116.8l-15.3,1.7c-0.6,0.1-1.2-0.4-1.3-1l-0.1-1.2c-0.1-0.6,0.4-1.2,1-1.3l15.3-1.7
		c0.6-0.1,1.2,0.4,1.3,1l0.1,1.2C127.6,116.2,127.2,116.8,126.6,116.8z"/>
	
		<rect x="112.3" y="117.7" transform="matrix(0.9939 -0.1107 0.1107 0.9939 -12.486 13.9361)" class="st5" width="13.9" height="3.5"/>
	
		<rect x="49.3" y="88.5" transform="matrix(-0.1107 -0.9939 0.9939 -0.1107 -1.4536 177.2141)" class="st5" width="58.5" height="1.6"/>
	
		<rect x="115.7" y="149.5" transform="matrix(0.9939 -0.1107 0.1107 0.9939 -15.8444 14.4932)" class="st5" width="13.7" height="0.9"/>
	
		<rect x="89.9" y="116.5" transform="matrix(0.9939 -0.1107 0.1107 0.9939 -12.3724 11.5962)" class="st5" width="16.7" height="1.4"/>
	
		<rect x="116.4" y="155.4" transform="matrix(0.9939 -0.1107 0.1107 0.9939 -16.5202 14.6067)" class="st5" width="13.7" height="1.3"/>
	
		<rect x="122.3" y="208" transform="matrix(0.9939 -0.1107 0.1107 0.9939 -22.3004 15.5776)" class="st3" width="13.7" height="1.3"/>
	
		<rect x="123.3" y="215.9" transform="matrix(0.9939 -0.1107 0.1107 0.9939 -23.2816 15.7424)" class="st5" width="13.7" height="3.4"/>
	
		<rect x="129.7" y="112.4" transform="matrix(0.9939 -0.1107 0.1107 0.9939 -11.7787 15.6042)" class="st5" width="9.8" height="2.9"/>
	<path class="st9" d="M130.9,154.6l-15.3,1.7c-0.6,0.1-1.2-0.4-1.3-1l-0.1-1.2c-0.1-0.6,0.4-1.2,1-1.3l15.3-1.7
		c0.6-0.1,1.2,0.4,1.3,1l0.1,1.2C132,153.9,131.5,154.5,130.9,154.6z"/>
	<ellipse transform="matrix(0.9939 -0.1107 0.1107 0.9939 -9.6935 11.2771)" class="st5" cx="96.7" cy="92.9" rx="12.6" ry="12.6"/>
	
		<ellipse transform="matrix(0.9939 -0.1107 0.1107 0.9939 -9.2242 11.1983)" class="st10" cx="96.2" cy="88.7" rx="11.9" ry="11.9"/>
	
		<rect x="120.8" y="209.1" transform="matrix(0.9939 -0.1107 0.1107 0.9939 -22.7681 15.638)" class="st2" width="17.4" height="7.5"/>
	
		<rect x="173.7" y="196.1" transform="matrix(0.9944 -0.1058 0.1058 0.9944 -21.1475 22.1558)" class="st3" width="49" height="28.5"/>
	
		<rect x="121" y="209.9" transform="matrix(0.9939 -0.1107 0.1107 0.9939 -22.8964 14.8937)" class="st3" width="3.4" height="7.5"/>
	
		<rect x="134.8" y="208.5" transform="matrix(0.9939 -0.1107 0.1107 0.9939 -22.6603 16.2994)" class="st4" width="1.2" height="7.4"/>
	<g>
		<defs>
			
				<ellipse id="SVGID_3_" transform="matrix(0.9944 -0.1058 0.1058 0.9944 -23.8737 15.2535)" cx="131.8" cy="232.6" rx="6.9" ry="0.9"/>
		</defs>
		<clipPath id="SVGID_4_">
			<use xlink:href="#SVGID_3_"  style="overflow:visible;"/>
		</clipPath>
		
			<rect x="126.2" y="231.8" transform="matrix(0.9944 -0.1058 0.1058 0.9944 -23.9523 14.84)" class="st11" width="3.4" height="2.7"/>
	</g>
	
		<rect x="185.2" y="207.4" transform="matrix(0.9944 -0.1058 0.1058 0.9944 -21.8676 21.0331)" class="st5" width="4.2" height="18.4"/>
	
		<rect x="175.1" y="222.4" transform="matrix(0.9944 -0.1058 0.1058 0.9944 -22.5236 22.3806)" class="st5" width="49.1" height="2.1"/>
	<rect x="182" y="197.5" transform="matrix(0.9944 -0.1058 0.1058 0.9944 -20.8154 20.64)" class="st5" width="4.2" height="17.9"/>
	<g>
		<defs>
			
				<ellipse id="SVGID_5_" transform="matrix(0.9944 -0.1058 0.1058 0.9944 -23.8737 15.2535)" cx="131.8" cy="232.6" rx="6.9" ry="0.9"/>
		</defs>
		<clipPath id="SVGID_6_">
			<use xlink:href="#SVGID_5_"  style="overflow:visible;"/>
		</clipPath>
		
			<rect x="128.5" y="123.2" transform="matrix(0.9939 -0.1107 0.1107 0.9939 -18.9675 15.3884)" class="st12" width="1.2" height="110.5"/>
	</g>
	<g>
		<path class="st9" d="M176.6,155.7L176.6,155.7c-0.4,0-0.6,0.4-0.6,0.7l1.5,14.1c0,0.4,0.4,0.6,0.7,0.6h0c0.4,0,0.6-0.4,0.6-0.7
			l-1.5-14.1C177.3,155.9,176.9,155.6,176.6,155.7z"/>
		
			<rect x="180.1" y="207.2" transform="matrix(0.9944 -0.1058 0.1058 0.9944 -21.9498 20.5961)" class="st2" width="6.1" height="19.9"/>
		
			<rect x="179" y="188.4" transform="matrix(0.9944 -0.1058 0.1058 0.9944 -19.9211 20.2707)" class="st2" width="4.2" height="18.9"/>
		<path class="st2" d="M178.1,169.5l-0.1,0c-0.7,0.1-1.1,0.7-1.1,1.3l1.8,17.4c0.1,0.7,0.7,1.1,1.3,1.1l0.1,0
			c0.7-0.1,1.1-0.7,1.1-1.3l-1.8-17.4C179.4,169.9,178.8,169.4,178.1,169.5z"/>
		
			<rect x="180.6" y="207.4" transform="matrix(0.9939 -0.1107 0.1107 0.9939 -22.9438 21.4272)" class="st3" width="1.8" height="19.9"/>
		
			<rect x="179.5" y="188.5" transform="matrix(0.9939 -0.1107 0.1107 0.9939 -20.8073 21.1736)" class="st3" width="1.6" height="18.9"/>
		
			<rect x="179.9" y="206" transform="matrix(0.9939 -0.1107 0.1107 0.9939 -21.7632 21.4195)" class="st5" width="4.2" height="1.4"/>
		
			<rect x="178.8" y="187.8" transform="matrix(0.9939 -0.1107 0.1107 0.9939 -19.7209 21.0876)" class="st5" width="2.6" height="0.7"/>
		<g>
			<defs>
				<path id="SVGID_7_" d="M178.1,169.5l-0.1,0c-0.7,0.1-1.1,0.7-1.1,1.3l1.8,17.4c0.1,0.7,0.7,1.1,1.3,1.1l0.1,0
					c0.7-0.1,1.1-0.7,1.1-1.3l-1.8-17.4C179.4,169.9,178.8,169.4,178.1,169.5z"/>
			</defs>
			<clipPath id="SVGID_8_">
				<use xlink:href="#SVGID_7_"  style="overflow:visible;"/>
			</clipPath>
			
				<rect x="178.2" y="169.5" transform="matrix(0.9939 -0.1107 0.1107 0.9939 -18.7226 20.8599)" class="st13" width="0.6" height="19.1"/>
		</g>
	</g>
	<g>
		<path class="st9" d="M239.8,309.2c-1-9-6-15.9-11.1-16.3l0-0.2l-13.4,1.4c-5.7,0.6-9.4,8.9-8.4,18.5c1,9.6,6.5,16.9,12.1,16.3
			l13.4-1.4l0,0C237.3,326.1,240.8,318.2,239.8,309.2z"/>
		
			<ellipse transform="matrix(0.9944 -0.1058 0.1058 0.9944 -31.5259 26.0905)" class="st14" cx="230.1" cy="310.2" rx="9.5" ry="16.9"/>
		
			<ellipse transform="matrix(0.9944 -0.1058 0.1058 0.9944 -31.5434 26.3053)" class="st5" cx="232.1" cy="310.4" rx="2.9" ry="6.8"/>
	</g>
	<g>
		<path class="st9" d="M144.7,285.1c-1-9-6-15.9-11.1-16.3l0-0.2l-13.4,1.4c-5.7,0.6-9.4,8.9-8.4,18.5c1,9.6,6.5,16.9,12.1,16.3
			l13.4-1.4l0,0C142.2,302,145.7,294.1,144.7,285.1z"/>
		
			<ellipse transform="matrix(0.9944 -0.1058 0.1058 0.9944 -29.5082 15.9203)" class="st14" cx="135.3" cy="286.1" rx="9.5" ry="16.9"/>
		
			<ellipse transform="matrix(0.9944 -0.1058 0.1058 0.9944 -29.4838 16.0726)" class="st5" cx="136.7" cy="285.9" rx="2.9" ry="6.8"/>
	</g>
	<g>
		<path class="st9" d="M76.6,325.6c-1-9-6-15.9-11.1-16.3l0-0.2l-13.4,1.4c-5.7,0.6-9.4,8.9-8.4,18.5s6.5,16.9,12.1,16.3l13.4-1.4
			l0,0C74.1,342.4,77.6,334.6,76.6,325.6z"/>
		
			<ellipse transform="matrix(0.9944 -0.1058 0.1058 0.9944 -34.1689 8.9411)" class="st14" cx="67.2" cy="326.5" rx="9.5" ry="16.9"/>
		<ellipse transform="matrix(0.9944 -0.1058 0.1058 0.9944 -34.2131 9.1131)" class="st5" cx="68.8" cy="327" rx="2.9" ry="6.8"/>
	</g>
	<g>
		<path class="st9" d="M293.9,269.3c-1-9-6-15.9-11.1-16.3l0-0.2l-13.4,1.4c-5.7,0.6-9.4,8.9-8.4,18.5c1,9.6,6.5,16.9,12.1,16.3
			l13.4-1.4l0,0C291.4,286.1,294.8,278.3,293.9,269.3z"/>
		
			<ellipse transform="matrix(0.9944 -0.1058 0.1058 0.9944 -26.9881 31.6347)" class="st14" cx="284.6" cy="270.2" rx="9.5" ry="16.9"/>
		
			<ellipse transform="matrix(0.9944 -0.1058 0.1058 0.9944 -26.9398 31.9361)" class="st5" cx="287.5" cy="269.9" rx="2.9" ry="6.8"/>
	</g>
	
		<rect x="102.6" y="245.4" transform="matrix(0.9944 -0.1058 0.1058 0.9944 -26.8835 17.9563)" class="st3" width="106.4" height="33.8"/>
	
		<rect x="52.4" y="281.1" transform="matrix(0.9944 -0.1058 0.1058 0.9944 -31.015 7.6782)" class="st2" width="8.8" height="30.1"/>
	
		<rect x="228.5" y="257.6" transform="matrix(0.4993 0.8664 -0.8664 0.4993 352.8723 -65.3011)" class="st2" width="8.8" height="30.1"/>
	
		<rect x="257.2" y="227.7" transform="matrix(0.1473 0.9891 -0.9891 0.1473 463.4671 -48.1796)" class="st2" width="5" height="34"/>
	
		<rect x="214" y="284.1" transform="matrix(0.9944 -0.1058 0.1058 0.9944 -29.4595 24.7412)" class="st2" width="8.8" height="11.8"/>
	
		<rect x="272" y="244.7" transform="matrix(0.9944 -0.1058 0.1058 0.9944 -24.8747 30.4824)" class="st2" width="5.6" height="9.9"/>
	<polygon class="st5" points="224.2,221.8 246.7,216.3 244.4,194.7 221.2,193.6 	"/>
	<path class="st5" d="M202.2,268.2l-15.3,1.7c-0.6,0.1-1.2-0.4-1.3-1l-0.1-1.2c-0.1-0.6,0.4-1.2,1-1.3l15.3-1.7
		c0.6-0.1,1.2,0.4,1.3,1l0.1,1.2C203.2,267.5,202.8,268.1,202.2,268.2z"/>
	<path class="st5" d="M201.5,262.2l-15.3,1.7c-0.6,0.1-1.2-0.4-1.3-1l-0.1-1.2c-0.1-0.6,0.4-1.2,1-1.3l15.3-1.7
		c0.6-0.1,1.2,0.4,1.3,1l0.1,1.2C202.6,261.6,202.1,262.1,201.5,262.2z"/>
	<path class="st9" d="M202,267.1l-15.3,1.7c-0.6,0.1-1.2-0.4-1.3-1l-0.1-1.2c-0.1-0.6,0.4-1.2,1-1.3l15.3-1.7c0.6-0.1,1.2,0.4,1.3,1
		l0.1,1.2C203.1,266.4,202.6,267,202,267.1z"/>
	<path class="st9" d="M201.4,261.1l-15.3,1.7c-0.6,0.1-1.2-0.4-1.3-1l-0.1-1.2c-0.1-0.6,0.4-1.2,1-1.3l15.3-1.7
		c0.6-0.1,1.2,0.4,1.3,1l0.1,1.2C202.4,260.5,202,261.1,201.4,261.1z"/>
	<path class="st5" d="M215.7,204.3l-15.3,1.7c-0.6,0.1-1.2-0.4-1.3-1l-0.1-1.2c-0.1-0.6,0.4-1.2,1-1.3l15.3-1.7
		c0.6-0.1,1.2,0.4,1.3,1l0.1,1.2C216.7,203.7,216.3,204.3,215.7,204.3z"/>
	<path class="st4" d="M215.5,203.2l-15.3,1.7c-0.6,0.1-1.2-0.4-1.3-1l-0.1-1.2c-0.1-0.6,0.4-1.2,1-1.3l15.3-1.7
		c0.6-0.1,1.2,0.4,1.3,1l0.1,1.2C216.6,202.5,216.2,203.1,215.5,203.2z"/>
	<rect x="58.6" y="280.8" transform="matrix(0.9939 -0.1107 0.1107 0.9939 -32.39 8.3652)" class="st4" width="1" height="30.1"/>
	
		<rect x="52.5" y="281.4" transform="matrix(0.9939 -0.1107 0.1107 0.9939 -32.4833 7.7973)" class="st3" width="2.9" height="30.1"/>
	<polygon class="st3" points="52.2,275.4 50.9,281.6 55.5,281.1 	"/>
	<path class="st9" d="M59.7,283.1l-8.5,1c-0.6,0.1-1.2-0.4-1.3-1l-0.1-1.2c-0.1-0.6,0.4-1.2,1-1.3l8.5-1c0.6-0.1,1.2,0.4,1.3,1
		l0.1,1.2C60.8,282.5,60.3,283,59.7,283.1z"/>
	<path class="st9" d="M57.9,282.6l-6.7-5.4c-0.5-0.4-0.6-1.1-0.2-1.6l0.8-1c0.4-0.5,1.1-0.6,1.6-0.2l6.7,5.4
		c0.5,0.4,0.6,1.1,0.2,1.6l-0.8,1C59.1,282.9,58.4,283,57.9,282.6z"/>
	<g>
		<defs>
			
				<rect id="SVGID_9_" x="79.9" y="240.9" transform="matrix(-0.4993 -0.8664 0.8664 -0.4993 -110.941 470.1431)" width="1" height="52.4"/>
		</defs>
		<clipPath id="SVGID_10_">
			<use xlink:href="#SVGID_9_"  style="overflow:visible;"/>
		</clipPath>
		<path class="st15" d="M80.7,259.7c0,0,4.9,0.8,4.2,7.2l23-13.9l-6.3-6.2L80.7,259.7z"/>
	</g>
	<polygon class="st3" points="213.7,282.8 217.1,277.3 221.8,282.7 	"/>
	<g>
		<defs>
			
				<ellipse id="SVGID_11_" transform="matrix(0.9944 -0.1058 0.1058 0.9944 -32.5961 7.9392)" cx="58.5" cy="311.2" rx="4.4" ry="0.9"/>
		</defs>
		<clipPath id="SVGID_12_">
			<use xlink:href="#SVGID_11_"  style="overflow:visible;"/>
		</clipPath>
		<g class="st16">
			
				<rect x="52.5" y="282.1" transform="matrix(0.9944 -0.1058 0.1058 0.9944 -31.1196 7.695)" class="st2" width="8.8" height="30.1"/>
			
				<rect x="58.7" y="281.8" transform="matrix(0.9939 -0.1107 0.1107 0.9939 -32.4994 8.383)" class="st4" width="1" height="30.1"/>
			
				<rect x="52.6" y="282.4" transform="matrix(0.9939 -0.1107 0.1107 0.9939 -32.5927 7.8151)" class="st3" width="2.9" height="30.1"/>
		</g>
	</g>
	<g>
		<defs>
			
				<ellipse id="SVGID_13_" transform="matrix(0.9944 -0.1058 0.1058 0.9944 -30.0781 24.8404)" cx="219.1" cy="295.9" rx="4.4" ry="0.9"/>
		</defs>
		<clipPath id="SVGID_14_">
			<use xlink:href="#SVGID_13_"  style="overflow:visible;"/>
		</clipPath>
		<g class="st17">
			
				<rect x="213.1" y="266.8" transform="matrix(0.9944 -0.1058 0.1058 0.9944 -28.6016 24.5962)" class="st2" width="8.8" height="30.1"/>
			
				<rect x="219.3" y="266.5" transform="matrix(0.9939 -0.1107 0.1107 0.9939 -29.8214 26.0601)" class="st4" width="1" height="30.1"/>
			
				<rect x="213.2" y="267.1" transform="matrix(0.9939 -0.1107 0.1107 0.9939 -29.9148 25.4922)" class="st3" width="2.9" height="30.1"/>
		</g>
	</g>
	<g>
		<defs>
			
				<ellipse id="SVGID_15_" transform="matrix(0.9944 -0.1058 0.1058 0.9944 -25.3947 30.5666)" cx="275.4" cy="254.6" rx="2.8" ry="0.8"/>
		</defs>
		<clipPath id="SVGID_16_">
			<use xlink:href="#SVGID_15_"  style="overflow:visible;"/>
		</clipPath>
		<g class="st18">
			
				<rect x="271.1" y="228.6" transform="matrix(0.9944 -0.1058 0.1058 0.9944 -24.0739 30.3499)" class="st2" width="5.7" height="26.9"/>
			<polygon class="st4" points="277.3,255.2 276.6,255.3 273.7,228.5 274.3,228.5 			"/>
			<polygon class="st3" points="274.5,255.5 272.7,255.8 269.7,229 271.6,228.8 			"/>
		</g>
	</g>
	
		<rect x="276.1" y="246.5" transform="matrix(0.9944 -0.1058 0.1058 0.9944 -24.963 30.656)" class="st4" width="0.6" height="8.1"/>
	
		<rect x="272.2" y="248.1" transform="matrix(0.9944 -0.1058 0.1058 0.9944 -25.0725 30.3134)" class="st3" width="1.9" height="6.8"/>
	<path class="st9" d="M277.2,247.9l-5.1,0.6c-0.6,0.1-1.2-0.4-1.3-1l-0.1-1.2c-0.1-0.6,0.4-1.2,1-1.3l5.1-0.6c0.6-0.1,1.2,0.4,1.3,1
		l0.1,1.2C278.3,247.3,277.9,247.9,277.2,247.9z"/>
	
		<rect x="220.2" y="284.4" transform="matrix(0.9944 -0.1058 0.1058 0.9944 -29.4375 24.9851)" class="st4" width="1.1" height="11.1"/>
	<rect x="214.1" y="286" transform="matrix(0.9944 -0.1058 0.1058 0.9944 -29.5902 24.4489)" class="st3" width="3" height="10.3"/>
	<path class="st9" d="M222.3,285.4l-8.5,1c-0.6,0.1-1.2-0.4-1.3-1l-0.1-1.2c-0.1-0.6,0.4-1.2,1-1.3l8.5-1c0.6-0.1,1.2,0.4,1.3,1
		l0.1,1.2C223.3,284.8,222.9,285.3,222.3,285.4z"/>
	
		<rect x="256" y="226.1" transform="matrix(0.1473 0.9891 -0.9891 0.1473 460.4185 -45.3417)" class="st4" width="1.1" height="36.5"/>
	
		<rect x="237.5" y="231.2" transform="matrix(0.8664 -0.4993 0.4993 0.8664 -92.7125 154.2305)" class="st2" width="8.8" height="38.5"/>
	
		<rect x="237.2" y="255" transform="matrix(0.4993 0.8664 -0.8664 0.4993 355.1208 -69.5561)" class="st4" width="1.1" height="34.9"/>
	
		<rect x="243" y="230.4" transform="matrix(0.8664 -0.4993 0.4993 0.8664 -91.6109 154.7922)" class="st4" width="1.1" height="36.5"/>
	
		<rect x="230.9" y="253.3" transform="matrix(0.4993 0.8664 -0.8664 0.4993 349.8499 -66.3706)" class="st3" width="3" height="32.5"/>
	<rect x="236.2" y="233" transform="matrix(0.8664 -0.4993 0.4993 0.8664 -92.692 151.9832)" class="st3" width="3" height="32.5"/>
	<path class="st9" d="M220.8,283.9l-4.6-6.3c-0.4-0.5-0.3-1.2,0.2-1.6l1-0.7c0.5-0.4,1.2-0.3,1.6,0.2l4.6,6.3
		c0.4,0.5,0.3,1.2-0.2,1.6l-1,0.7C221.8,284.5,221.1,284.4,220.8,283.9z"/>
	<path class="st9" d="M277.1,242.4l-4.5,4c-0.5,0.4-1.2,0.4-1.6-0.1l-0.8-0.9c-0.4-0.5-0.4-1.2,0.1-1.6l4.5-4
		c0.5-0.4,1.2-0.4,1.6,0.1l0.8,0.9C277.6,241.3,277.5,242,277.1,242.4z"/>
	<path class="st3" d="M243.7,244.6l2.7,4.6l1.9-0.3c0,0-2.7-3.6,0.6-5.1L243.7,244.6z"/>
	<path class="st2" d="M247.3,245.2l-3.1,0.5l0.6,1l2.3-0.3C247.2,246.3,247.1,245.9,247.3,245.2z"/>
	
		<rect x="101.1" y="245.5" transform="matrix(0.9944 -0.1058 0.1058 0.9944 -25.4562 17.7274)" class="st5" width="106.4" height="6.5"/>
	<path class="st5" d="M236.6,250.2c0,0,3.3-5.7,8.3-3.6l-8.7-15.1l-7.8,4.4L236.6,250.2z"/>
	<path class="st6" d="M238.6,247.8l-7.7-13.4l-2.5,1.5l8.2,14.3C236.6,250.2,237.4,248.8,238.6,247.8z"/>
	<path class="st3" d="M241.5,246.3c0,0,0.8-0.2,1.2-0.1l-8.5-13.6l-0.8,0.4L241.5,246.3z"/>
	<polygon class="st5" points="271.6,213.6 272.7,224.6 223.9,238.1 222.6,225.9 	"/>
</g>
</svg>
