<svg id="Layer_1" data-name="Layer 1" xmlns="http://www.w3.org/2000/svg" viewBox="0 0 16 16"><defs><style>.cls-1{fill:#ffdd67;}.cls-2{fill:#eba352;}</style></defs><title>point-hand</title><path class="cls-1" d="M32.91,25.27a2.37,2.37,0,0,1-1.52,2.22l-0.21.07a5.51,5.51,0,0,1-.4.38V28a16.47,16.47,0,0,0,2.74,0c0.75-.14,4-0.14,4.87-0.17S40,28,40,29.44a1.5,1.5,0,0,1-1.65,1.77C37.28,31.1,33.52,31,33.52,31a1.16,1.16,0,0,1,.85,1.46c-0.11,1.18-.45,1.43-1,1.46a1.63,1.63,0,0,1-.69,3c0.85,0.31.69,0.83,0.61,1.56a1.45,1.45,0,0,1-1,1.22c-0.59.17-1,.76-5.59-0.1-1.22-.24-1.81-1.6-2.1-3.68-0.19-1.39-.48-3.3-0.56-4.73V30.76a2.75,2.75,0,0,1,.75-2.09L28,25.58h0a1.14,1.14,0,0,1,.64-0.42,8,8,0,0,0,3-1.08,1,1,0,0,1,1.2,1.18" transform="translate(-24.05 -24.01)"/><path class="cls-2" d="M33.34,38c0.16-1.32-1.41-1.22-.75-0.94a1.25,1.25,0,0,1,.75.94" transform="translate(-24.05 -24.01)"/><path class="cls-2" d="M34,35.48c0.13-1.81-1.41-1.63-.77-1.29A1.92,1.92,0,0,1,34,35.48" transform="translate(-24.05 -24.01)"/><path class="cls-2" d="M34.35,32.5c0.13-1.81-1.52-1.63-.88-1.29a2.14,2.14,0,0,1,.88,1.29" transform="translate(-24.05 -24.01)"/><path class="cls-2" d="M30.76,28.08a38.65,38.65,0,0,1,7.61-.24A1.38,1.38,0,0,1,40,29.33c-0.37-1.67-4.61-.9-9.24-1.25" transform="translate(-24.05 -24.01)"/><path class="cls-2" d="M32.67,24.36a0.69,0.69,0,0,0-.53,0,7.4,7.4,0,0,1-3,1.08,0.88,0.88,0,0,0-.64.42L25.22,29a2.81,2.81,0,0,0-.75,2.09v0.38c0.08,1.39.37,3.3,0.56,4.69a5.55,5.55,0,0,0,1.17,3.2c-0.91-.45-1.36-1.74-1.6-3.51-0.19-1.39-.48-3.3-0.56-4.73V30.76a2.75,2.75,0,0,1,.75-2.09L28,25.58h0a1.14,1.14,0,0,1,.64-0.42,8,8,0,0,0,3-1.08,0.79,0.79,0,0,1,1,.28" transform="translate(-24.05 -24.01)"/><path class="cls-2" d="M29.64,27.66s1.14-.45,1.68-0.63a2.75,2.75,0,0,0,1.6-1.6,2.36,2.36,0,0,1-1.52,2.12l-0.21.07a2.12,2.12,0,0,1-.4.49,1.53,1.53,0,0,0-1.14-.45" transform="translate(-24.05 -24.01)"/><path class="cls-2" d="M33.21,31.24a1.81,1.81,0,0,0-.4.28c-0.13.1-.24,0.21-0.4,0.31a0.75,0.75,0,0,1-1,0,1.82,1.82,0,0,0,.45-0.07,2.2,2.2,0,0,0,.4-0.21c0.13-.07.27-0.17,0.43-0.24a0.49,0.49,0,0,1,.48-0.07" transform="translate(-24.05 -24.01)"/><path class="cls-2" d="M32.78,34a1.81,1.81,0,0,0-.4.28c-0.13.1-.24,0.21-0.4,0.31a0.75,0.75,0,0,1-1,0,1.82,1.82,0,0,0,.45-0.07,1.11,1.11,0,0,0,.4-0.21c0.13-.07.27-0.17,0.43-0.24A0.48,0.48,0,0,1,32.78,34" transform="translate(-24.05 -24.01)"/><path class="cls-2" d="M32.14,36.94a1.81,1.81,0,0,0-.4.28c-0.13.1-.24,0.21-0.4,0.31a0.75,0.75,0,0,1-1,0,1.82,1.82,0,0,0,.45-0.07,2.2,2.2,0,0,0,.4-0.21c0.13-.07.27-0.17,0.43-0.24a0.48,0.48,0,0,1,.48-0.07" transform="translate(-24.05 -24.01)"/></svg>