<svg id="Layer_1" data-name="Layer 1" xmlns="http://www.w3.org/2000/svg" viewBox="0 0 16 15.46"><defs><style>.cls-1{fill:#42ade2;}.cls-2{fill:#ffdd67;}.cls-3{fill:#eba352;}</style></defs><title>wave_yellow</title><path class="cls-1" d="M3.76,12.71a2,2,0,0,1-.37-0.11C3.25,12.55,3.15,12.53,3,12.47a3.4,3.4,0,0,1-.67-0.4,3.41,3.41,0,0,1-1-1.17A3.36,3.36,0,0,1,.88,9.41a3.75,3.75,0,0,1,0-.77L1,8.26C1,8.13,1.07,8,1.09,7.89l0,0.37a1.8,1.8,0,0,0,.05.37,5.33,5.33,0,0,0,.13.69,4.43,4.43,0,0,0,.51,1.28,5.66,5.66,0,0,0,.85,1.12C2.83,11.89,3,12,3.2,12.21a2.83,2.83,0,0,0,.29.24l0.27,0.27" transform="translate(0 -0.58)"/><path class="cls-1" d="M3.68,13.67a1,1,0,0,1-.29.11,1.13,1.13,0,0,1-.29.05,2.32,2.32,0,0,1-.61,0,3,3,0,0,1-1.17-.32A2.26,2.26,0,0,1,.4,12.71a3.42,3.42,0,0,1-.29-0.53C0.08,12.1.05,12,0,11.89s0-.16,0-0.27c0.08,0.08.13,0.16,0.19,0.21S0.32,12,.37,12a4.93,4.93,0,0,0,.37.37A3.85,3.85,0,0,0,1.6,13a6.07,6.07,0,0,0,1,.4c0.16,0.05.35,0.08,0.53,0.13s0.19,0,.27.05l0.32,0.05" transform="translate(0 -0.58)"/><path class="cls-1" d="M9.71,0.71a2.09,2.09,0,0,1,.37.13L10.43,1a5.68,5.68,0,0,1,.67.43,3.54,3.54,0,0,1,1.39,2.75A3.81,3.81,0,0,1,12.4,5a2,2,0,0,1-.11.37c-0.05.13-.08,0.24-0.13,0.35l0-.37a1.76,1.76,0,0,0,0-.37L12,4.21a5,5,0,0,0-1.25-2.48c-0.16-.19-0.35-0.35-0.51-0.53A2.83,2.83,0,0,0,10,1L9.71,0.71" transform="translate(0 -0.58)"/><path class="cls-1" d="M12,0.61a0.8,0.8,0,0,1,.27.11,1.25,1.25,0,0,1,.27.13,5.41,5.41,0,0,1,.48.35,2.4,2.4,0,0,1,.67,1,2.21,2.21,0,0,1,.16,1.17,4.26,4.26,0,0,1-.13.56c0,0.08-.08.19-0.11,0.27a1.25,1.25,0,0,1-.16.24V3.86c0-.19,0-0.35,0-0.51a3.62,3.62,0,0,0-.24-1,5.63,5.63,0,0,0-.48-0.88L12.4,1.09A1.34,1.34,0,0,0,12.21.87,0.76,0.76,0,0,0,12,.61" transform="translate(0 -0.58)"/><path class="cls-2" d="M2.13,4.58A1.05,1.05,0,0,0,1.65,6L5,13l1.87-.88-3.36-7a1,1,0,0,0-1.39-.51" transform="translate(0 -0.58)"/><path class="cls-2" d="M11,10.15l2-.93-3.84-8a1.1,1.1,0,1,0-2,1l3.84,8" transform="translate(0 -0.58)"/><path class="cls-3" d="M7.65,0.69a0.56,0.56,0,0,0-.16.11,1.11,1.11,0,0,1,1.28.59l3.84,8L13,9.22l-3.84-8A1.09,1.09,0,0,0,7.65.69" transform="translate(0 -0.58)"/><path class="cls-2" d="M6.88,12.1l2.05-1L5,3A1.13,1.13,0,1,0,3,3.91L6.88,12.1" transform="translate(0 -0.58)"/><path class="cls-3" d="M3.49,2.42a0.56,0.56,0,0,0-.16.11,1.17,1.17,0,0,1,1.33.61L7.09,8.23,7.68,8.58,5,3a1.13,1.13,0,0,0-1.52-.56" transform="translate(0 -0.58)"/><path class="cls-2" d="M8.61,10.47l2.05-1L6.75,1.33A1.13,1.13,0,0,0,5.23.79a1.15,1.15,0,0,0-.53,1.52l3.92,8.16" transform="translate(0 -0.58)"/><path class="cls-3" d="M5.23,0.77l-0.16.11a1.17,1.17,0,0,1,1.33.61L9.15,7.25,9.73,7.59l-3-6.27A1.14,1.14,0,0,0,5.23.77" transform="translate(0 -0.58)"/><path class="cls-3" d="M2.13,4.58A0.56,0.56,0,0,0,2,4.69a1,1,0,0,1,1.2.59l2,4.19L5.76,9.81,3.52,5.11a1,1,0,0,0-1.39-.53" transform="translate(0 -0.58)"/><path class="cls-2" d="M15.68,3.78c-0.72-.56-1.89.05-2.48,2-0.4,1.33-.45,1.73-1.31,2.13l-0.48-1s-7.57,3.65-7.28,4.24a10.73,10.73,0,0,0,2.45,4.13c2.29,2,7.65-.13,7.89-5.23,0.13-3,2-5.65,1.2-6.27" transform="translate(0 -0.58)"/><path class="cls-3" d="M15.68,3.78a1,1,0,0,0-.45-0.19s0.08,0,.11.05c0.8,0.61,0,2-.48,3.31A7.91,7.91,0,0,0,14.22,10a5.66,5.66,0,0,1-6.91,5.73,5.63,5.63,0,0,0,7.25-5.6,7.63,7.63,0,0,1,.64-3.07c0.43-1.28,1.25-2.69.48-3.31" transform="translate(0 -0.58)"/><path class="cls-3" d="M12.13,7.78c-1.65.19-4.08,2.56-2.37,5.15-1.25-2.61.8-4.37,2.11-5a1.18,1.18,0,0,1,.27-0.16" transform="translate(0 -0.58)"/></svg>